<?xml version="1.0" encoding="UTF-8"?>
<svg version="1.1" xmlns="http://www.w3.org/2000/svg" width="1474" height="343">
<path d="M0 0 C486.42 0 972.84 0 1474 0 C1474 113.19 1474 226.38 1474 343 C987.58 343 501.16 343 0 343 C0 229.81 0 116.62 0 0 Z " fill="#FEFEFE" transform="translate(0,0)"/>
<path d="M0 0 C73.26 0 146.52 0 222 0 C222 6.6 222 13.2 222 20 C204.675 20.495 204.675 20.495 187 21 C186.77390663 23.30793446 186.77390663 23.30793446 189.25 25.4375 C193.69420056 29.57868688 195.85665506 31.35923174 202.078125 31.51171875 C203.81835938 31.56489258 203.81835938 31.56489258 205.59375 31.61914062 C206.8003125 31.64169922 208.006875 31.66425781 209.25 31.6875 C210.47203125 31.72166016 211.6940625 31.75582031 212.953125 31.79101562 C215.96842746 31.8734653 218.98419936 31.93840971 222 32 C222 38.6 222 45.2 222 52 C220.68 52.66 219.36 53.32 218 54 C220.74737136 56.83062504 223.52923719 59.47663913 226.5625 62 C229.44227883 64.43195146 231.69657391 67.00554608 234 70 C235.6459651 71.68711423 237.31237149 73.3545622 239 75 C239.70125 75.7425 240.4025 76.485 241.125 77.25 C242.97977175 79.22443723 242.97977175 79.22443723 246 80 C246.45375 80.78375 246.9075 81.5675 247.375 82.375 C248.79734935 85.14378165 248.79734935 85.14378165 251.4375 86.375 C254.37297094 88.23651816 255.39376581 90.19222472 256.95703125 93.2421875 C258.06273676 95.29409149 258.06273676 95.29409149 260.6875 97.5 C263.69032096 100.74629293 263.92363286 102.61024102 264 107 C262.14613342 109.81590271 262.14613342 109.81590271 259.34008789 112.56811523 C258.83304825 113.07632309 258.32600861 113.58453094 257.80360413 114.10813904 C256.12822027 115.77796313 254.42633613 117.41769118 252.72265625 119.05859375 C251.55363805 120.21268602 250.38637752 121.3685612 249.22080994 122.52613831 C246.1523505 125.56409225 243.06063206 128.5772582 239.96343994 131.58587646 C236.80561951 134.66177303 233.67040216 137.76052043 230.53320312 140.85742188 C224.37735851 146.92753836 218.19675392 152.97165351 212 159 C215.3 159.33 218.6 159.66 222 160 C222 166.6 222 173.2 222 180 C219.48826172 180.07347656 219.48826172 180.07347656 216.92578125 180.1484375 C214.72133791 180.22348238 212.51691163 180.29902947 210.3125 180.375 C209.20970703 180.4059375 208.10691406 180.436875 206.97070312 180.46875 C205.90400391 180.50742188 204.83730469 180.54609375 203.73828125 180.5859375 C202.75899658 180.6173584 201.77971191 180.6487793 200.77075195 180.68115234 C195.35386478 181.30450723 191.33777815 183.79381615 187 187 C186.01 188.32 185.02 189.64 184 191 C196.54 191.33 209.08 191.66 222 192 C222 198.6 222 205.2 222 212 C148.74 212 75.48 212 0 212 C0 205.4 0 198.8 0 192 C54.45 191.67 108.9 191.34 165 191 C163.35 189.35 161.7 187.7 160 186 C159.67 185.01 159.34 184.02 159 183 C158.34 183 157.68 183 157 183 C157 182.34 157 181.68 157 181 C79.285 180.505 79.285 180.505 0 180 C0 173.4 0 166.8 0 160 C42.57 159.67 85.14 159.34 129 159 C124.87593941 154.47841194 124.87593941 154.47841194 120 151 C120 150.34 120 149.68 120 149 C80.4 148.67 40.8 148.34 0 148 C0 141.4 0 134.8 0 128 C48.015 127.505 48.015 127.505 97 127 C94.36 124.36 91.72 121.72 89 119 C89 118.34 89 117.68 89 117 C59.63 116.67 30.26 116.34 0 116 C0 109.4 0 102.8 0 96 C2.77535156 96.01683838 5.55070312 96.03367676 8.41015625 96.05102539 C17.59443121 96.10017428 26.7782268 96.09976295 35.96258545 96.07515812 C41.52964328 96.06175873 47.09565562 96.06489413 52.66259766 96.10620117 C58.03829463 96.14547447 63.4123451 96.14081228 68.78805542 96.10607719 C70.83570112 96.10049138 72.88345307 96.11056252 74.93093872 96.13676643 C86.01594029 96.65654833 86.01594029 96.65654833 96.08300781 92.95822144 C99.50115161 89.46642096 99.50115161 89.46642096 101 85 C67.67 84.67 34.34 84.34 0 84 C0 77.4 0 70.8 0 64 C1.54824463 64.00745743 3.09648926 64.01491486 4.69165039 64.02259827 C19.28781107 64.08703705 33.88318387 64.10473413 48.47943115 64.07515812 C55.9834606 64.06114715 63.48678227 64.06382766 70.99072266 64.10620117 C77.53348139 64.14310426 84.07537696 64.14828306 90.61817265 64.11582941 C94.08092142 64.09974916 97.54205197 64.09924095 101.00466919 64.13676643 C104.87622621 64.17812796 108.74553302 64.14863845 112.6171875 64.11352539 C113.75726761 64.13653214 114.89734772 64.15953888 116.07197571 64.1832428 C120.77368104 64.09128444 123.79872837 63.96532443 127.54205322 60.95724297 C131.17761349 57.43219467 131.17761349 57.43219467 133 53 C67.165 52.505 67.165 52.505 0 52 C0 45.4 0 38.8 0 32 C1.89681015 32.00745743 3.7936203 32.01491486 5.74790955 32.02259827 C23.62535661 32.0870215 41.50231223 32.10474077 59.37985897 32.07515812 C68.57092036 32.06114402 77.76140385 32.06384108 86.95239258 32.10620117 C94.96554042 32.14309 102.97798347 32.14829535 110.99116141 32.11582941 C115.23240158 32.09974231 119.47232028 32.09926652 123.71345329 32.13676643 C127.71062036 32.17160776 131.70550812 32.16388902 135.70261002 32.12437057 C137.16465236 32.11726257 138.62686496 32.12533385 140.08871269 32.15022469 C148.49442214 32.33827038 148.49442214 32.33827038 155.92910957 28.92208672 C158.15306542 26.71660724 160.12918912 24.50852214 162 22 C160.16561667 20.16561667 157.22827613 20.85516545 154.76756287 20.84178162 C154.10925651 20.83684364 153.45095016 20.83190566 152.77269512 20.82681805 C150.55085867 20.81137151 148.32905126 20.80306321 146.10717773 20.79467773 C144.52084087 20.78510482 142.9345066 20.77509509 141.34817505 20.76467896 C137.02814057 20.73756021 132.70809509 20.71658851 128.38802218 20.69667697 C123.87829487 20.67486025 119.36860175 20.64745053 114.85890198 20.62062073 C106.31308104 20.57063531 97.76724119 20.52571826 89.22138315 20.48259836 C79.49479939 20.43327586 69.76824992 20.3783393 60.04169929 20.32291877 C40.02783126 20.20900898 20.01393 20.10238878 0 20 C0 13.4 0 6.8 0 0 Z " fill="#1682C5" transform="translate(58,65)"/>
<path d="M0 0 C6.93 0 13.86 0 21 0 C21.0093457 3.31949707 21.01869141 6.63899414 21.02832031 10.05908203 C21.06219536 21.06736258 21.11780276 32.07545774 21.18390274 43.08358955 C21.22329185 49.75317833 21.25552234 56.42258492 21.27099609 63.09228516 C21.28621897 69.53747432 21.32076475 75.98230493 21.36830902 82.42733383 C21.38306479 84.87746934 21.39103765 87.32765605 21.39188385 89.77783585 C21.09032752 112.05457281 21.09032752 112.05457281 30 132 C37.53471962 138.0310804 46.83973675 137.79370273 56 137 C63.72712429 134.88509949 69.69732571 129.68601838 74 123 C76.25844088 116.85106452 76.30558453 111.06212218 76.31884766 104.55688477 C76.32889328 103.42444839 76.3389389 102.29201202 76.34928894 101.1252594 C76.3800795 97.39731332 76.39714488 93.66943893 76.4140625 89.94140625 C76.43277743 87.35065598 76.45235109 84.75991177 76.4727478 82.16917419 C76.51880316 76.05663737 76.55622367 69.94410406 76.58942068 63.83148569 C76.62771872 56.86888393 76.67710859 49.90637445 76.72740483 42.94385064 C76.83056382 28.62930243 76.91948264 14.31469228 77 0 C83.93 0 90.86 0 98 0 C97.99887207 3.45114258 97.99774414 6.90228516 97.99658203 10.45800781 C97.99721093 21.88939237 98.03045 33.3205547 98.0802784 44.75181961 C98.109686 51.67935252 98.12813016 58.60658063 98.12011719 65.53417969 C98.11240868 72.22586308 98.13610893 78.91677625 98.17855453 85.60836029 C98.18965467 88.1550535 98.19041407 90.70181446 98.18042374 93.24851227 C97.64987007 113.06511378 97.64987007 113.06511378 106.7727356 129.98370361 C112.37664489 135.50553367 118.67583134 137.15736593 126.375 137.4375 C133.86736669 137.25497135 139.40514527 135.07702718 145.8125 131.375 C152.45257898 124.16577139 153.73545232 116.4319628 153.65942383 106.94091797 C153.66990753 105.77878281 153.68039124 104.61664764 153.69119263 103.41929626 C153.71980167 99.60998369 153.71366714 95.80158766 153.70703125 91.9921875 C153.72015485 89.33843205 153.7352187 86.68475829 153.75285339 84.03103638 C153.79016362 77.78041215 153.8024336 71.53000541 153.8054778 65.27928078 C153.81018287 58.15695227 153.84315231 51.03483971 153.87837565 43.91260695 C153.95013926 29.27508251 153.98306975 14.63769366 154 0 C161.26 0 168.52 0 176 0 C176.1132804 15.38696426 176.20521134 30.77371902 176.25906086 46.16098881 C176.28473928 53.30710442 176.31968856 60.45294073 176.37719727 67.59887695 C176.42735293 73.83415939 176.45936612 80.06923937 176.47044247 86.30471796 C176.47690765 89.60027835 176.49458643 92.89513174 176.52865028 96.19053841 C176.86011397 129.60754251 176.86011397 129.60754251 166.07421875 142.0078125 C159.30032354 148.51381354 151.96058046 153.19057708 143 156 C142.34257813 156.22429687 141.68515625 156.44859375 141.0078125 156.6796875 C129.40144325 159.9764383 114.75550585 159.45009937 104 154 C97.16034788 149.81137583 91.60850447 144.21700894 88 137 C87.5875 137.58007812 87.175 138.16015625 86.75 138.7578125 C80.20662007 147.60890232 72.3772253 154.10877793 61.421875 156.58203125 C48.56212475 158.15279983 34.32500313 159.08279899 23 152 C21.89011719 151.31357422 21.89011719 151.31357422 20.7578125 150.61328125 C10.03173629 143.22645518 3.13651202 132.29175222 0.41615677 119.61421394 C-0.34466313 114.83489487 -0.25975521 110.06681797 -0.22705078 105.23803711 C-0.22734283 104.09555511 -0.22763489 102.95307312 -0.22793579 101.77597046 C-0.22655035 98.02634905 -0.21102605 94.27693014 -0.1953125 90.52734375 C-0.19157958 87.91703907 -0.18873393 85.30673298 -0.18673706 82.69642639 C-0.18054324 76.54493814 -0.16416112 70.39352175 -0.14403808 64.24206501 C-0.12161341 57.23353547 -0.1106692 50.22500234 -0.10064721 43.2164458 C-0.07979281 28.81092604 -0.04425088 14.40546644 0 0 Z " fill="#080A0B" transform="translate(866,36)"/>
<path d="M0 0 C5.85707556 4.23863121 9.20163916 11.34199951 12.22262573 17.73048401 C12.79415375 18.91122246 12.79415375 18.91122246 13.37722778 20.11581421 C14.62270793 22.69325832 15.85618457 25.27625578 17.08981323 27.85939026 C17.9686302 29.68306791 18.8483671 31.50630251 19.72897339 33.32911682 C21.56044243 37.12187334 23.38793163 40.91651003 25.21286011 44.7124176 C27.86624593 50.22523312 30.54362818 55.72608071 33.23043823 61.22267151 C33.66093475 62.10341843 34.09143127 62.98416534 34.53497314 63.89160156 C35.39067312 65.64175923 36.24649614 67.39185675 37.10244751 69.14189148 C45.44864509 86.20707221 53.70582329 103.31398252 61.96481323 120.42189026 C62.29481323 80.49189026 62.62481323 40.56189026 62.96481323 -0.57810974 C70.22481323 -0.57810974 77.48481323 -0.57810974 84.96481323 -0.57810974 C85.0342745 18.22389642 85.08780445 37.02586631 85.12024975 55.82797432 C85.13571541 64.55821731 85.15679917 73.28837908 85.19113159 82.01856995 C85.22104317 89.62824078 85.24039043 97.2378528 85.24707872 104.84758079 C85.250988 108.87649497 85.26016905 112.90524088 85.2820034 116.9341011 C85.30239638 120.72780825 85.30864139 124.52127812 85.30413628 128.31503487 C85.30496022 129.70577726 85.31090927 131.09652775 85.32242966 132.48722267 C85.33741589 134.38995719 85.33196534 136.2928196 85.32557678 138.19560242 C85.32834216 139.25935152 85.33110754 140.32310062 85.33395672 141.41908455 C84.7386532 146.26159392 83.00475584 149.48340547 79.40231323 152.73439026 C73.92928835 156.52340749 68.45456371 156.09805905 61.96481323 155.42189026 C56.06930338 153.97120686 52.64138381 150.78254998 49.54684448 145.67189026 C46.77974857 140.70461294 44.37919391 135.56694998 41.96481323 130.42189026 C41.10262219 128.63297487 40.23800744 126.84522575 39.37106323 125.05860901 C37.41611594 121.01738064 35.47943016 116.96790397 33.55075073 112.91407776 C29.58884339 104.60847512 25.54975024 96.34088148 21.5100708 88.07289124 C19.35707859 83.66636654 17.20594363 79.25893531 15.05465698 74.85157776 C14.62995621 73.98154114 14.20525543 73.11150452 13.76768494 72.21510315 C9.78329637 64.05185902 5.80188383 55.88718125 1.8321228 47.71681213 C1.13366185 46.27995969 0.43453357 44.84343143 -0.26528931 43.40724182 C-1.22550071 41.43640994 -2.18339113 39.46446735 -3.14065552 37.49220276 C-3.67843628 36.38634827 -4.21621704 35.28049377 -4.77029419 34.14112854 C-6.03518677 31.42189026 -6.03518677 31.42189026 -7.03518677 28.42189026 C-7.36518677 70.00189026 -7.69518677 111.58189026 -8.03518677 154.42189026 C-14.96518677 154.42189026 -21.89518677 154.42189026 -29.03518677 154.42189026 C-29.12786307 135.91521084 -29.19920631 117.40859716 -29.24243546 98.9017334 C-29.26304284 90.30827423 -29.29112843 81.71496208 -29.33694458 73.12159729 C-29.37686835 65.62983411 -29.40263284 58.13817742 -29.41154075 50.64631081 C-29.41674616 46.68098895 -29.42894235 42.71597171 -29.45810699 38.75074768 C-29.48536393 35.0144383 -29.49361123 31.27855749 -29.48761749 27.54215813 C-29.48923351 25.52545566 -29.51070234 23.50879932 -29.53286743 21.49221802 C-29.49802944 13.79924195 -29.08370237 7.74744567 -23.58774185 1.87539673 C-17.00332741 -4.02388709 -7.57358204 -4.41912164 0 0 Z " fill="#0A0B0D" transform="translate(631.0351867675781,36.57810974121094)"/>
<path d="M0 0 C72.59585275 0 72.59585275 0 95.23828125 22.10546875 C110.29786251 37.48601737 116.44059655 56.77800687 116.29321289 77.88745117 C115.87822985 100.56458637 107.43026988 120.75809881 91.8828125 137.3515625 C73.97193772 153.8062686 53.21497755 155.57610698 30 155 C30 148.4 30 141.8 30 135 C39.875 134.6875 39.875 134.6875 42.92138672 134.61206055 C56.45583958 134.07062974 67.78451814 129.17816823 77.125 119.25390625 C89.15860074 104.78851536 94.17103318 88.58782832 93 70 C91.09352058 55.00449797 85.19767595 43.220364 74 33 C57.98623732 21.03941017 40.89177516 20.82882396 21 20 C21 64.55 21 109.1 21 155 C14.07 155 7.14 155 0 155 C0 103.85 0 52.7 0 0 Z " fill="#080A0B" transform="translate(354,36)"/>
<path d="M0 0 C12.80059193 9.91995159 19.34972837 22.88506498 21.46484375 38.91015625 C21.60437758 42.50343929 21.59120626 46.09338432 21.57836914 49.68896484 C21.57851517 50.76273376 21.57866119 51.83650269 21.57881165 52.94281006 C21.57811664 56.48142538 21.57034351 60.01998765 21.5625 63.55859375 C21.56063436 66.01624523 21.55921114 68.47389709 21.55821228 70.93154907 C21.55439863 77.39236482 21.54457816 83.853158 21.5335083 90.31396484 C21.52326943 96.90982762 21.51870935 103.50569406 21.51367188 110.1015625 C21.50295487 123.03777191 21.48536737 135.97395867 21.46484375 148.91015625 C14.53484375 148.91015625 7.60484375 148.91015625 0.46484375 148.91015625 C0.46484375 125.81015625 0.46484375 102.71015625 0.46484375 78.91015625 C-18.01515625 78.91015625 -36.49515625 78.91015625 -55.53515625 78.91015625 C-55.53515625 72.31015625 -55.53515625 65.71015625 -55.53515625 58.91015625 C-37.05515625 58.91015625 -18.57515625 58.91015625 0.46484375 58.91015625 C-1.43610344 34.85305444 -1.43610344 34.85305444 -14.7890625 16.1015625 C-21.8637531 11.27431276 -30.21801895 11.1559574 -38.53515625 11.91015625 C-46.46547119 13.95382285 -52.45869042 17.70113928 -57.22265625 24.41015625 C-64.35662078 37.19110534 -63.00901752 52.4478751 -63.046875 66.5859375 C-63.06374434 68.96633314 -63.08189758 71.34671999 -63.10127258 73.72709656 C-63.14853362 79.95267999 -63.17849716 86.17822779 -63.20471191 92.40393066 C-63.2346386 98.77261387 -63.28112704 105.14117458 -63.32617188 111.50976562 C-63.41193295 123.97651209 -63.4778655 136.44324641 -63.53515625 148.91015625 C-70.46515625 148.91015625 -77.39515625 148.91015625 -84.53515625 148.91015625 C-84.6030711 134.38404008 -84.65805271 119.85803026 -84.69059277 105.33179092 C-84.70601293 98.58588191 -84.72700868 91.8400791 -84.76147461 85.09423828 C-84.79419293 78.57789744 -84.81203561 72.06166662 -84.81978798 65.54524994 C-84.82530911 63.06550109 -84.8360903 60.58575792 -84.85234642 58.10605621 C-84.87428619 54.6190768 -84.87711624 51.1325457 -84.87573242 47.64550781 C-84.88651825 46.63201767 -84.89730408 45.61852753 -84.90841675 44.57432556 C-84.84386557 29.43364465 -79.81929205 16.12710708 -69.41015625 5.03515625 C-50.65126358 -12.6157249 -21.24357304 -14.69269148 0 0 Z " fill="#050708" transform="translate(1148.53515625,42.08984375)"/>
<path d="M0 0 C9.73540137 8.99466431 14.33890603 21.4072943 16.046875 34.34765625 C16.18640883 37.94093929 16.17323751 41.53088432 16.16040039 45.12646484 C16.16054642 46.20023376 16.16069244 47.27400269 16.1608429 48.38031006 C16.16014789 51.91892538 16.15237476 55.45748765 16.14453125 58.99609375 C16.14266561 61.45374523 16.14124239 63.91139709 16.14024353 66.36904907 C16.13642988 72.82986482 16.12660941 79.290658 16.11553955 85.75146484 C16.10530068 92.34732762 16.1007406 98.94319406 16.09570312 105.5390625 C16.08498612 118.47527191 16.06739862 131.41145867 16.046875 144.34765625 C9.116875 144.34765625 2.186875 144.34765625 -4.953125 144.34765625 C-4.953125 121.24765625 -4.953125 98.14765625 -4.953125 74.34765625 C-23.433125 74.34765625 -41.913125 74.34765625 -60.953125 74.34765625 C-60.953125 67.74765625 -60.953125 61.14765625 -60.953125 54.34765625 C-42.473125 54.34765625 -23.993125 54.34765625 -4.953125 54.34765625 C-6.85407219 30.29055444 -6.85407219 30.29055444 -20.20703125 11.5390625 C-27.28172185 6.71181276 -35.6359877 6.5934574 -43.953125 7.34765625 C-51.88343994 9.39132285 -57.87665917 13.13863928 -62.640625 19.84765625 C-69.77458953 32.62860534 -68.42698627 47.8853751 -68.46484375 62.0234375 C-68.48171309 64.40383314 -68.49986633 66.78421999 -68.51924133 69.16459656 C-68.56650237 75.39017999 -68.59646591 81.61572779 -68.62268066 87.84143066 C-68.65260735 94.21011387 -68.69909579 100.57867458 -68.74414062 106.94726562 C-68.8299017 119.41401209 -68.89583425 131.88074641 -68.953125 144.34765625 C-75.883125 144.34765625 -82.813125 144.34765625 -89.953125 144.34765625 C-90.02103985 129.82154008 -90.07602146 115.29553026 -90.10856152 100.76929092 C-90.12398168 94.02338191 -90.14497743 87.2775791 -90.17944336 80.53173828 C-90.21216168 74.01539744 -90.23000436 67.49916662 -90.23775673 60.98274994 C-90.24327786 58.50300109 -90.25405905 56.02325792 -90.27031517 53.54355621 C-90.29225494 50.0565768 -90.29508499 46.5700457 -90.29370117 43.08300781 C-90.304487 42.06951767 -90.31527283 41.05602753 -90.3263855 40.01182556 C-90.26183432 24.87114465 -85.2372608 11.56460708 -74.828125 0.47265625 C-53.40785005 -19.6547626 -21.85216659 -18.48693293 0 0 Z " fill="#050708" transform="translate(827.953125,46.65234375)"/>
<path d="M0 0 C7.26 0 14.52 0 22 0 C22 51.48 22 102.96 22 156 C14.74 156 7.48 156 0 156 C0 132.57 0 109.14 0 85 C-22.11 85 -44.22 85 -67 85 C-67 108.43 -67 131.86 -67 156 C-73.93 156 -80.86 156 -88 156 C-88 104.85 -88 53.7 -88 1 C-81.07 1 -74.14 1 -67 1 C-67 22.12 -67 43.24 -67 65 C-44.89 65 -22.78 65 0 65 C0 43.55 0 22.1 0 0 Z " fill="#090A0C" transform="translate(1395,35)"/>
<path d="M0 0 C30.36 0 60.72 0 92 0 C91.01 1.98 90.02 3.96 89 6 C88.44869713 11.14549341 88.87248856 14.7974065 92 19 C93.92962031 19.39246515 95.86072099 19.78009755 97.80078125 20.1171875 C103.67100918 22.47362002 107.29786501 29.56033087 110 35 C110.639375 35.639375 111.27875 36.27875 111.9375 36.9375 C114 39 114 39 115.375 41.3125 C118.10662029 45.83017972 120.99838011 50.02143028 125.8125 52.375 C130.74735541 54.89080864 134.32423993 58.89948543 138 63 C138 63.33 138 63.66 138 64 C135.525 64.495 135.525 64.495 133 65 C137.7468288 70.62703547 142.79085142 75.85396078 148.05859375 80.99609375 C150 83 150 83 150 84 C100.5 84 51 84 0 84 C0 77.4 0 70.8 0 64 C42.57 63.67 85.14 63.34 129 63 C124.87593941 58.47841194 124.87593941 58.47841194 120 55 C120 54.34 120 53.68 120 53 C80.4 52.67 40.8 52.34 0 52 C0 45.4 0 38.8 0 32 C48.015 31.505 48.015 31.505 97 31 C94.36 28.36 91.72 25.72 89 23 C89 22.34 89 21.68 89 21 C59.63 20.67 30.26 20.34 0 20 C0 13.4 0 6.8 0 0 Z " fill="#AAAAAA" transform="translate(58,161)"/>
<path d="M0 0 C1.39531166 0.00935318 2.79064001 0.0164574 4.18597412 0.0214386 C7.81621561 0.04031249 11.44541854 0.08923532 15.07525635 0.1449585 C18.79612182 0.19658181 22.51715906 0.21904343 26.23828125 0.24414062 C33.50833547 0.29738081 40.77732601 0.38514682 48.046875 0.48828125 C48.046875 7.08828125 48.046875 13.68828125 48.046875 20.48828125 C45.37549438 20.5022998 45.37549438 20.5022998 42.65014648 20.51660156 C36.74672577 20.5522128 30.84362055 20.60606408 24.94047451 20.67218399 C21.36353741 20.71158788 17.78684385 20.74381057 14.2097168 20.75927734 C10.75346685 20.77449146 7.29788678 20.80901893 3.84193611 20.85659027 C1.89069449 20.87851052 -0.06073638 20.8807509 -2.01210022 20.88262939 C-8.8368229 20.99470762 -13.47375974 21.25825923 -18.953125 25.48828125 C-22.92243615 30.47536449 -23.61429527 34.57613992 -23.3203125 40.9140625 C-22.6439861 45.65554227 -20.65654552 48.05178848 -17.05859375 51.0859375 C-7.75786895 58.04167546 2.99684253 63.16579723 13.49609375 68.0390625 C14.41865967 68.46856201 15.34122559 68.89806152 16.29174805 69.34057617 C18.07309461 70.16345253 19.85945909 70.9755891 21.65161133 71.7746582 C35.26139742 78.03307674 47.1354184 88.55413355 53.046875 102.48828125 C55.64899259 111.82716952 55.60769775 124.61276445 51.296875 133.32421875 C50.884375 134.03835937 50.471875 134.7525 50.046875 135.48828125 C49.634375 136.26429688 49.221875 137.0403125 48.796875 137.83984375 C43.6829276 146.52774302 35.58302042 151.6743367 26.046875 154.48828125 C21.41608182 155.27488763 16.97901452 155.61095599 12.28540039 155.60180664 C10.98458023 155.60173111 9.68376007 155.60165558 8.34352112 155.60157776 C6.94385743 155.59647266 5.54419414 155.59125669 4.14453125 155.5859375 C2.69722035 155.58406991 1.24990881 155.58264762 -0.19740295 155.58164978 C-3.9867226 155.57785143 -7.77600326 155.56804435 -11.56530762 155.5569458 C-15.44001742 155.54667372 -19.3147336 155.54213979 -23.18945312 155.53710938 C-30.77736349 155.5264194 -38.36523379 155.50884464 -45.953125 155.48828125 C-45.953125 148.88828125 -45.953125 142.28828125 -45.953125 135.48828125 C-44.12209229 135.47369873 -42.29105957 135.45911621 -40.40454102 135.4440918 C-34.32554444 135.39225154 -28.24680737 135.32691583 -22.168046 135.25256634 C-18.48583263 135.2080153 -14.80372601 135.1687267 -11.12133789 135.1418457 C-7.5614359 135.11565885 -4.00194813 135.07515096 -0.44230461 135.02509499 C1.56314295 135.00051869 3.56875129 134.99042147 5.57432556 134.9806366 C13.87689165 134.8481673 20.75580082 134.10023944 27.921875 129.73828125 C31.69311853 125.74519986 33.20131556 121.46765899 33.546875 116.05078125 C33.27710006 109.43005467 29.6673898 104.80911051 25.02734375 100.33203125 C18.14932392 94.42739017 9.47523036 90.98835671 1.359375 87.11328125 C-35.89830697 69.29329819 -35.89830697 69.29329819 -44.265625 48.17578125 C-46.27353443 37.4060852 -45.28400702 27.7533999 -39.6328125 18.2734375 C-29.68608515 4.11429829 -16.90667469 -0.33150723 0 0 Z " fill="#060809" transform="translate(1230.953125,35.51171875)"/>
<path d="M0 0 C6.93 0 13.86 0 21 0 C21.00410889 1.61374512 21.00821777 3.22749023 21.01245117 4.89013672 C21.03431686 10.91015015 21.08868528 16.92951691 21.15258789 22.94921875 C21.17570285 25.54843929 21.19014822 28.14775262 21.19555664 30.74707031 C21.20489312 34.49602662 21.24599133 38.24353624 21.29296875 41.9921875 C21.2890361 43.14363251 21.28510345 44.29507751 21.28105164 45.48141479 C21.41433926 52.94805018 22.65600631 58.80719464 27 65 C34.72921405 72.43307132 42.49177671 73.41647594 52.80737305 73.36132812 C60.09519132 73.19833055 66.38173252 72.50956416 71.8203125 67.234375 C78.48779779 59.05301624 79.45332369 50.84215707 79.51171875 40.625 C79.53864555 38.8773938 79.53864555 38.8773938 79.56611633 37.09448242 C79.62002508 33.39635773 79.65405354 29.69836069 79.6875 26 C79.72069012 23.48305523 79.75518134 20.96612726 79.79101562 18.44921875 C79.87574081 12.29957154 79.94264515 6.14996092 80 0 C86.93 0 93.86 0 101 0 C101.0746007 7.61309713 101.12881488 15.22597767 101.16479492 22.83935547 C101.17980712 25.4250052 101.20022313 28.01062978 101.22631836 30.59619141 C101.26303545 34.32981604 101.27980274 38.06310166 101.29296875 41.796875 C101.30845261 42.93799744 101.32393646 44.07911987 101.33988953 45.25482178 C101.34270384 58.91989716 98.17926279 69.89299947 89.03515625 80.21875 C81.23465134 87.77231155 71.67606098 92.47484843 61 94 C61 114.13 61 134.26 61 155 C53.74 155 46.48 155 39 155 C39 134.87 39 114.74 39 94 C35.37 93.01 31.74 92.02 28 91 C15.73828301 85.48710602 6.99926879 76.49457213 2.22816467 63.97460938 C-0.18047364 56.83848189 -0.39174669 50.25852458 -0.29296875 42.7734375 C-0.28872391 41.54460846 -0.28447906 40.31577942 -0.28010559 39.04971313 C-0.2634279 35.1579111 -0.22579504 31.26664327 -0.1875 27.375 C-0.17243911 24.72266377 -0.15875317 22.07031936 -0.14648438 19.41796875 C-0.11355998 12.94510935 -0.06185268 6.47264499 0 0 Z " fill="#07080A" transform="translate(483,36)"/>
<path d="M0 0 C73.26 0 146.52 0 222 0 C222 6.6 222 13.2 222 20 C204.675 20.495 204.675 20.495 187 21 C186.77390663 23.30793446 186.77390663 23.30793446 189.25 25.4375 C193.69420056 29.57868688 195.85665506 31.35923174 202.078125 31.51171875 C203.81835938 31.56489258 203.81835938 31.56489258 205.59375 31.61914062 C206.8003125 31.64169922 208.006875 31.66425781 209.25 31.6875 C210.47203125 31.72166016 211.6940625 31.75582031 212.953125 31.79101562 C215.96842746 31.8734653 218.98419936 31.93840971 222 32 C222 38.6 222 45.2 222 52 C220.68 52.66 219.36 53.32 218 54 C220.74737136 56.83062504 223.52923719 59.47663913 226.5625 62 C229.44227883 64.43195146 231.69657391 67.00554608 234 70 C235.6459651 71.68711423 237.31237149 73.3545622 239 75 C239.70125 75.7425 240.4025 76.485 241.125 77.25 C242.97977175 79.22443723 242.97977175 79.22443723 246 80 C246.45375 80.78375 246.9075 81.5675 247.375 82.375 C248.79734935 85.14378165 248.79734935 85.14378165 251.4375 86.375 C254.37080679 88.23514577 255.38984772 90.18956129 256.95703125 93.234375 C258.07394987 95.3002841 258.07394987 95.3002841 260.6875 97.625 C263.17841263 100.18323459 263.70037833 101.50441384 264 105 C258.78936078 100.64304101 253.92583419 96.0641384 249.13696289 91.25048828 C248.38491577 90.49858719 247.63286865 89.7466861 246.85803223 88.97200012 C244.39386004 86.507136 241.93324049 84.03875789 239.47265625 81.5703125 C237.75652073 79.85231025 236.04016306 78.13452988 234.32359314 76.41696167 C229.82186792 71.91143139 225.32315483 67.40290529 220.82507324 62.89373779 C216.22830491 58.28671199 211.62867923 53.68254087 207.02929688 49.078125 C198.01674068 40.05486698 189.00726818 31.02853652 180 22 C179.07646729 22.48194824 179.07646729 22.48194824 178.13427734 22.97363281 C175.89824884 24.04893181 174.06812481 24.38996055 171.625 24.75 C168.00980755 25.46949997 166.33264665 26.32956857 163.9375 29.125 C162.21271625 31.12672086 161.48786151 31.91113634 158.85546875 32.390625 C156.625 32.375 156.625 32.375 153 32 C153.93590504 30.8944811 154.87379858 29.79064547 155.8125 28.6875 C156.59560547 27.76517578 156.59560547 27.76517578 157.39453125 26.82421875 C158.87172469 25.14575321 160.40039131 23.56117966 162 22 C160.16561667 20.16561667 157.22827613 20.85516545 154.76756287 20.84178162 C154.10925651 20.83684364 153.45095016 20.83190566 152.77269512 20.82681805 C150.55085867 20.81137151 148.32905126 20.80306321 146.10717773 20.79467773 C144.52084087 20.78510482 142.9345066 20.77509509 141.34817505 20.76467896 C137.02814057 20.73756021 132.70809509 20.71658851 128.38802218 20.69667697 C123.87829487 20.67486025 119.36860175 20.64745053 114.85890198 20.62062073 C106.31308104 20.57063531 97.76724119 20.52571826 89.22138315 20.48259836 C79.49479939 20.43327586 69.76824992 20.3783393 60.04169929 20.32291877 C40.02783126 20.20900898 20.01393 20.10238878 0 20 C0 13.4 0 6.8 0 0 Z " fill="#AAAAAA" transform="translate(58,65)"/>
<path d="M0 0 C0 6.6 0 13.2 0 20 C-2.51173828 20.07347656 -2.51173828 20.07347656 -5.07421875 20.1484375 C-7.27866209 20.22348238 -9.48308837 20.29902947 -11.6875 20.375 C-13.34168945 20.42140625 -13.34168945 20.42140625 -15.02929688 20.46875 C-16.09599609 20.50742188 -17.16269531 20.54609375 -18.26171875 20.5859375 C-19.24100342 20.6173584 -20.22028809 20.6487793 -21.22924805 20.68115234 C-26.64613522 21.30450723 -30.66222185 23.79381615 -35 27 C-35.99 28.32 -36.98 29.64 -38 31 C-19.19 31.495 -19.19 31.495 0 32 C0 38.6 0 45.2 0 52 C-73.26 52 -146.52 52 -222 52 C-222 45.4 -222 38.8 -222 32 C-167.55 31.67 -113.1 31.34 -57 31 C-58.65 29.35 -60.3 27.7 -62 26 C-62.33 25.01 -62.66 24.02 -63 23 C-63.66 23 -64.32 23 -65 23 C-65 22.34 -65 21.68 -65 21 C-65.99 20.67 -66.98 20.34 -68 20 C-66.02 20.33 -64.04 20.66 -62 21 C-62 21.66 -62 22.32 -62 23 C-61.38125 23.28875 -60.7625 23.5775 -60.125 23.875 C-58 25 -58 25 -56 27 C-53.47961059 27.6849487 -53.47961059 27.6849487 -50.625 28.125 C-49.66851562 28.29257813 -48.71203125 28.46015625 -47.7265625 28.6328125 C-44.79782705 29.0889771 -44.79782705 29.0889771 -41 29 C-38.74274231 26.94616674 -36.73116673 24.90671293 -34.6875 22.65625 C-33.43483033 21.33346328 -32.18088183 20.01188666 -30.92578125 18.69140625 C-28.96129265 16.60349428 -27.00755814 14.50828692 -25.07568359 12.39013672 C-11.78650662 -2.1099302 -11.78650662 -2.1099302 0 0 Z " fill="#AAAAAA" transform="translate(280,225)"/>
<path d="M0 0 C73.26 0 146.52 0 222 0 C222 6.6 222 13.2 222 20 C148.74 20 75.48 20 0 20 C0 13.4 0 6.8 0 0 Z " fill="#AAABAA" transform="translate(58,289)"/>
<path d="M0 0 C73.26 0 146.52 0 222 0 C222 6.6 222 13.2 222 20 C148.74 20 75.48 20 0 20 C0 13.4 0 6.8 0 0 Z " fill="#AAABAA" transform="translate(58,33)"/>
<path d="M0 0 C50.49 0 100.98 0 153 0 C146.25 7.875 146.25 7.875 143.7890625 10.30859375 C143.00595703 11.08686523 143.00595703 11.08686523 142.20703125 11.88085938 C141.42392578 12.65139648 141.42392578 12.65139648 140.625 13.4375 C140.07972656 13.97826172 139.53445312 14.51902344 138.97265625 15.07617188 C137.65076536 16.38646723 136.32572382 17.69358284 135 19 C135.99 19.33 136.98 19.66 138 20 C138 20.99 138 21.98 138 23 C137.34 23 136.68 23 136 23 C135.6596875 23.8353125 135.6596875 23.8353125 135.3125 24.6875 C133.59377841 27.71572375 131.67211603 29.77323664 129 32 C126.8359375 31.63671875 126.8359375 31.63671875 125 31 C125.5775 30.36191406 126.155 29.72382812 126.75 29.06640625 C127.4925 28.24011719 128.235 27.41382812 129 26.5625 C130.11375 25.32693359 130.11375 25.32693359 131.25 24.06640625 C133.10771092 22.32412545 133.10771092 22.32412545 133 21 C67.165 20.505 67.165 20.505 0 20 C0 13.4 0 6.8 0 0 Z " fill="#AAAAAA" transform="translate(58,97)"/>
<path d="M0 0 C5.28 0 10.56 0 16 0 C18.59373642 7.60516223 21.18480328 15.21121804 23.77121639 22.81887341 C24.9723658 26.35157756 26.17466876 29.88388018 27.37963867 33.4152832 C28.54299985 36.82488395 29.70329065 40.23551542 30.86148262 43.64687538 C31.30333398 44.94655651 31.74628026 46.24586594 32.19035149 47.54479027 C32.81333289 49.36765082 33.43202185 51.19197663 34.05053711 53.01635742 C34.40361435 54.05338303 34.75669159 55.09040863 35.12046814 56.15885925 C35.92719892 58.76483159 36.52266577 61.31640819 37 64 C39.66593656 57.04992204 42.06561364 50.02000473 44.44921875 42.96875 C44.86669876 41.73709106 45.28417877 40.50543213 45.71430969 39.2364502 C46.81523696 35.98842229 47.91462335 32.73987496 49.01367188 29.49121094 C50.1390301 26.16569585 51.2658694 22.84068272 52.39257812 19.515625 C54.59648864 13.01090256 56.79863177 6.50558325 59 0 C63.95 0 68.9 0 74 0 C74 25.74 74 51.48 74 78 C70.7 78 67.4 78 64 78 C63.67 57.54 63.34 37.08 63 16 C59.1946875 27.1684375 59.1946875 27.1684375 55.3125 38.5625 C54.52270752 40.87967041 53.73291504 43.19684082 52.91918945 45.58422852 C49.24238075 56.37732728 45.58212742 67.17505752 42 78 C38.7 78 35.4 78 32 78 C25.82039661 60.72363529 19.71863737 43.43562808 14 26 C13.01 23.03 12.02 20.06 11 17 C10.67 37.13 10.34 57.26 10 78 C6.7 78 3.4 78 0 78 C0 52.26 0 26.52 0 0 Z " fill="#030303" transform="translate(660,231)"/>
<path d="M0 0 C41.25 0 82.5 0 125 0 C118.25 7.875 118.25 7.875 115.7890625 10.30859375 C115.26699219 10.82744141 114.74492187 11.34628906 114.20703125 11.88085938 C113.68496094 12.39455078 113.16289062 12.90824219 112.625 13.4375 C111.80708984 14.24864258 111.80708984 14.24864258 110.97265625 15.07617188 C109.65076536 16.38646723 108.32572382 17.69358284 107 19 C107.66 19.33 108.32 19.66 109 20 C107.66073087 25.52448517 103.60429681 28.98162765 99 32 C95.5 32.4375 95.5 32.4375 93 32 C93.40992188 31.54109375 93.81984375 31.0821875 94.2421875 30.609375 C94.78101563 29.99578125 95.31984375 29.3821875 95.875 28.75 C96.40867187 28.14671875 96.94234375 27.5434375 97.4921875 26.921875 C99.27800279 24.77772813 99.27800279 24.77772813 101 21 C67.67 20.67 34.34 20.34 0 20 C0 13.4 0 6.8 0 0 Z " fill="#AAAAAA" transform="translate(58,129)"/>
<path d="M0 0 C45.74782609 0 45.74782609 0 55.17578125 8.796875 C65.04946236 20.72140636 64.94232515 34.33105284 64 49 C62.71173065 58.5373827 58.4126107 65.70351064 51.625 72.3125 C36.47602341 82.0511278 16.81708847 78 0 78 C0 52.26 0 26.52 0 0 Z M11 9 C11 28.8 11 48.6 11 69 C30.3738741 70.6728383 30.3738741 70.6728383 47.21875 62.88671875 C47.6415625 62.16097656 48.064375 61.43523437 48.5 60.6875 C48.9434375 59.96949219 49.386875 59.25148438 49.84375 58.51171875 C52.97914347 51.70071199 53.33736488 45.42747793 53.3125 38.0625 C53.32861328 37.11181641 53.34472656 36.16113281 53.36132812 35.18164062 C53.36633884 27.91109257 52.21357411 22.47847359 48.25 16.25 C44.38574944 12.38574944 40.34050935 10.33512734 35 9 C27.08 9 19.16 9 11 9 Z " fill="#060606" transform="translate(1352,231)"/>
<path d="M0 0 C18.15 0 36.3 0 55 0 C55 2.97 55 5.94 55 9 C40.15 9 25.3 9 10 9 C10 16.92 10 24.84 10 33 C23.86 33 37.72 33 52 33 C52 35.97 52 38.94 52 42 C38.14 42 24.28 42 10 42 C10 50.91 10 59.82 10 69 C25.84 69 41.68 69 58 69 C58 71.97 58 74.94 58 78 C38.86 78 19.72 78 0 78 C0 52.26 0 26.52 0 0 Z " fill="#000000" transform="translate(1173,231)"/>
<path d="M0 0 C-4.2762451 5.10841702 -8.75224157 9.89109048 -13.47412109 14.58764648 C-14.19676147 15.31043289 -14.91940186 16.0332193 -15.66394043 16.77790833 C-18.03140785 19.14468416 -20.40238775 21.50790719 -22.7734375 23.87109375 C-24.42417907 25.51996846 -26.07469867 27.16906542 -27.7250061 28.81837463 C-32.05298478 33.14254924 -36.38395899 37.4637113 -40.71557617 41.78424072 C-45.14163376 46.2000387 -49.56483481 50.618696 -53.98828125 55.03710938 C-62.6560699 63.69419795 -71.32702769 72.34810481 -80 81 C-78.64044743 84.03864948 -77.11309872 86.13487937 -74.76034546 88.48016357 C-73.75914421 89.48548882 -73.75914421 89.48548882 -72.73771667 90.51112366 C-72.00619888 91.2354509 -71.27468109 91.95977814 -70.52099609 92.70605469 C-69.3647599 93.86272896 -69.3647599 93.86272896 -68.18516541 95.04277039 C-65.635968 97.59057438 -63.07975928 100.13122091 -60.5234375 102.671875 C-58.75466104 104.43692138 -56.98632561 106.20240982 -55.21841431 107.96832275 C-51.03953172 112.1403491 -46.85621906 116.30789848 -42.67073691 120.47330117 C-37.43740365 125.68207257 -32.21098257 130.89776266 -26.984375 136.11328125 C-17.66178733 145.41441813 -8.33307054 154.70938262 1 164 C-3.22956134 165.28645301 -5.83584086 164.53416389 -10 163 C-12.9375 161 -12.9375 161 -15 159 C-15 158.34 -15 157.68 -15 157 C-15.61601074 157.02570068 -16.23202148 157.05140137 -16.86669922 157.07788086 C-23.83515923 156.94047648 -27.11464379 154.90475104 -31.921875 149.96679688 C-32.64890625 149.17337891 -33.3759375 148.37996094 -34.125 147.5625 C-34.89070313 146.77294922 -35.65640625 145.98339844 -36.4453125 145.16992188 C-42 139.35237863 -42 139.35237863 -42 137 C-42.66 136.67 -43.32 136.34 -44 136 C-42.02 135.67 -40.04 135.34 -38 135 C-43.4338135 128.97776559 -43.4338135 128.97776559 -50.0625 124.5 C-56.36344843 121.28249442 -60.49832969 114.98449305 -64 109 C-65.32810215 107.32916181 -66.66172696 105.66270287 -68 104 C-68.680625 102.96875 -69.36125 101.9375 -70.0625 100.875 C-71.8219349 98.06652544 -71.8219349 98.06652544 -73.75 96.25 C-74.1625 95.8375 -74.575 95.425 -75 95 C-75 94.34 -75 93.68 -75 93 C-76.85625 92.9690625 -76.85625 92.9690625 -78.75 92.9375 C-81.27234488 92.61997077 -82.58077137 92.40655964 -84.421875 90.62109375 C-86.98018033 86.47775142 -87.63305081 82.88353485 -87 78 C-85.84360194 75.68720389 -84.82590172 73.82590172 -83 72 C-81.989375 71.95875 -80.97875 71.9175 -79.9375 71.875 C-74.7931825 71.22664593 -71.36178703 67.73274283 -68 64 C-66.7834999 61.87727353 -66.7834999 61.87727353 -66 60 C-67.485 59.505 -67.485 59.505 -69 59 C-65.94990565 55.86268341 -62.88290323 52.74243348 -59.8125 49.625 C-58.94818359 48.73554688 -58.08386719 47.84609375 -57.19335938 46.9296875 C-56.35224609 46.07890625 -55.51113281 45.228125 -54.64453125 44.3515625 C-53.87471924 43.56604004 -53.10490723 42.78051758 -52.31176758 41.97119141 C-49.93062574 39.94084616 -47.91767419 39.05225579 -45 38 C-43.23523313 36.3149238 -43.23523313 36.3149238 -41.8125 34.375 C-40.33203125 32.4609375 -40.33203125 32.4609375 -39 31 C-38.34 31 -37.68 31 -37 31 C-37 30.01 -37 29.02 -37 28 C-38.32 27.67 -39.64 27.34 -41 27 C-38.02935568 23.82530327 -35.01905682 20.6911374 -32 17.5625 C-31.16082031 16.66466797 -30.32164062 15.76683594 -29.45703125 14.84179688 C-24.25265455 9.49621616 -21.47271662 7.1874291 -14 7 C-11.97888566 5.73861125 -11.97888566 5.73861125 -10.6875 4 C-7.51628742 0.2199873 -4.85537163 -0.13122626 0 0 Z " fill="#383D40" transform="translate(233,89)"/>
<path d="M0 0 C20.13 0 40.26 0 61 0 C61 2.97 61 5.94 61 9 C52.42 9 43.84 9 35 9 C35 31.77 35 54.54 35 78 C31.7 78 28.4 78 25 78 C25 55.23 25 32.46 25 9 C16.75 9 8.5 9 0 9 C0 6.03 0 3.06 0 0 Z " fill="#000000" transform="translate(992,231)"/>
<path d="M0 0 C3.3 0 6.6 0 10 0 C10 22.77 10 45.54 10 69 C22.54 69 35.08 69 48 69 C48 71.97 48 74.94 48 78 C32.16 78 16.32 78 0 78 C0 52.26 0 26.52 0 0 Z " fill="#000000" transform="translate(353,231)"/>
<path d="M0 0 C3.63 0 7.26 0 11 0 C11 25.74 11 51.48 11 78 C7.37 78 3.74 78 0 78 C0 52.26 0 26.52 0 0 Z " fill="#0B0B0B" transform="translate(524,231)"/>
<path d="M0 0 C0.81091929 0.76024884 0.81091929 0.76024884 1.63822079 1.53585625 C2.24465986 2.09605587 2.85109894 2.65625549 3.47591496 3.23343086 C4.08521791 3.82475681 4.69452087 4.41608276 5.32228756 5.02532768 C5.88343699 5.5624828 6.44458641 6.09963791 7.02274036 6.65307045 C8.789463 8.36993997 10.5305882 10.10971906 12.26735592 11.85687065 C12.92186733 12.51123604 13.57637875 13.16560143 14.25072384 13.83979607 C16.3902417 15.98000457 18.52620632 18.12372151 20.66213131 20.26751518 C22.15406411 21.76131518 23.64621942 23.25489296 25.138587 24.74825859 C29.04847705 28.66195007 32.95535349 32.57863633 36.8615942 36.49596977 C40.85512762 40.49976856 44.85152565 44.50070581 48.84767818 48.50189018 C56.67534241 56.34024981 64.49982355 64.18177861 72.32228756 72.02532768 C68.09272622 73.31178069 65.4864467 72.55949158 61.32228756 71.02532768 C58.38478756 69.02532768 58.38478756 69.02532768 56.32228756 67.02532768 C56.32228756 66.36532768 56.32228756 65.70532768 56.32228756 65.02532768 C55.70627682 65.05102837 55.09026608 65.07672905 54.45558834 65.10320854 C47.48712833 64.96580416 44.20764377 62.93007873 39.40041256 57.99212456 C38.67338131 57.19870659 37.94635006 56.40528862 37.19728756 55.58782768 C36.43158443 54.7982769 35.66588131 54.00872612 34.87697506 53.19524956 C29.32228756 47.37770631 29.32228756 47.37770631 29.32228756 45.02532768 C28.33228756 44.53032768 28.33228756 44.53032768 27.32228756 44.02532768 C30.29228756 43.53032768 30.29228756 43.53032768 33.32228756 43.02532768 C27.88847406 37.00309327 27.88847406 37.00309327 21.25978756 32.52532768 C14.95883913 29.3078221 10.82395787 23.00982073 7.32228756 17.02532768 C5.99418541 15.3544895 4.6605606 13.68803055 3.32228756 12.02532768 C2.64166256 10.99407768 1.96103756 9.96282768 1.25978756 8.90032768 C-0.49964734 6.09185312 -0.49964734 6.09185312 -2.42771244 4.27532768 C-2.84021244 3.86282768 -3.25271244 3.45032768 -3.67771244 3.02532768 C-3.67771244 2.36532768 -3.67771244 1.70532768 -3.67771244 1.02532768 C-4.33771244 0.69532768 -4.99771244 0.36532768 -5.67771244 0.02532768 C-2.16927567 -1.26024752 -2.16927567 -1.26024752 0 0 Z " fill="#454544" transform="translate(161.67771244049072,180.97467231750488)"/>
<path d="M0 0 C3.3 0 6.6 0 10 0 C10 25.74 10 51.48 10 78 C6.7 78 3.4 78 0 78 C0 52.26 0 26.52 0 0 Z " fill="#000000" transform="translate(861,231)"/>
<path d="M0 0 C0 6.6 0 13.2 0 20 C-10.23 20 -20.46 20 -31 20 C-29.02 17.69 -27.04 15.38 -25 13 C-24.44425293 12.34394775 -23.88850586 11.68789551 -23.31591797 11.01196289 C-16.06812001 2.58382454 -11.78604647 -1.84600728 0 0 Z " fill="#A8A9A8" transform="translate(280,225)"/>
<path d="M0 0 C-6.36326679 7.56794205 -13.22538383 14.59199375 -20.16723633 21.62719727 C-21.6861476 23.17289652 -23.19784745 24.72571402 -24.70239258 26.28540039 C-26.88781184 28.54972767 -29.09519214 30.79040319 -31.30859375 33.02734375 C-31.97547714 33.72721909 -32.64236053 34.42709442 -33.32945251 35.1481781 C-38.62082355 40.41726215 -38.62082355 40.41726215 -42.98071289 40.43579102 C-43.97707764 40.29197998 -44.97344238 40.14816895 -46 40 C-45.57847656 39.51789063 -45.15695313 39.03578125 -44.72265625 38.5390625 C-44.17480469 37.90742187 -43.62695312 37.27578125 -43.0625 36.625 C-42.51722656 35.99851563 -41.97195312 35.37203125 -41.41015625 34.7265625 C-39.93041376 33.04367666 -39.93041376 33.04367666 -39 31 C-38.34 31 -37.68 31 -37 31 C-37 30.01 -37 29.02 -37 28 C-38.32 27.67 -39.64 27.34 -41 27 C-38.02935568 23.82530327 -35.01905682 20.6911374 -32 17.5625 C-31.16082031 16.66466797 -30.32164062 15.76683594 -29.45703125 14.84179688 C-24.25265455 9.49621616 -21.47271662 7.1874291 -14 7 C-11.97888566 5.73861125 -11.97888566 5.73861125 -10.6875 4 C-7.51628742 0.2199873 -4.85537163 -0.13122626 0 0 Z " fill="#393A3B" transform="translate(233,89)"/>
<path d="M0 0 C0.66 0.66 1.32 1.32 2 2 C1.62746094 2.55429688 1.25492187 3.10859375 0.87109375 3.6796875 C0.39800781 4.40414062 -0.07507813 5.12859375 -0.5625 5.875 C-1.27599609 6.95394531 -1.27599609 6.95394531 -2.00390625 8.0546875 C-2.33261719 8.69664062 -2.66132813 9.33859375 -3 10 C-2.505 10.99 -2.505 10.99 -2 12 C-3.010625 12.825 -4.02125 13.65 -5.0625 14.5 C-7.54262723 16.62826681 -9.74897816 18.77607389 -11.84375 21.28125 C-17.14975407 27.41143971 -22.80097004 33.20970241 -28.47875977 38.99365234 C-29.79089598 40.33768019 -31.09490104 41.68969183 -32.39086914 43.04931641 C-34.28194376 45.03157592 -36.19794461 46.98640484 -38.12109375 48.9375 C-38.69218369 49.54674316 -39.26327362 50.15598633 -39.85166931 50.78369141 C-42.97573932 53.89305785 -44.92143021 55.36404449 -49.42993164 55.37890625 C-51.19711548 55.19134766 -51.19711548 55.19134766 -53 55 C-48.27275673 49.2691251 -43.15105149 44.03065324 -37.87717247 38.80200768 C-36.35755763 37.29530542 -34.84121987 35.78537054 -33.32563782 34.27461243 C-30.11574938 31.07606385 -26.90190675 27.88150697 -23.6875 24.6875 C-19.94305273 20.96667525 -16.20025531 17.2442208 -12.46161842 13.51755714 C-10.96738292 12.02980412 -9.47017115 10.54509099 -7.9728241 9.06047058 C-7.07131119 8.16226089 -6.16979828 7.26405121 -5.2409668 6.33862305 C-4.44409958 5.54699265 -3.64723236 4.75536224 -2.82621765 3.93974304 C-0.94311057 2.12580362 -0.94311057 2.12580362 0 0 Z " fill="#E4E4E4" transform="translate(322,170)"/>
<path d="M0 0 C3.96 0 7.92 0 12 0 C6.44964797 6.78376359 0.23557973 12.85522968 -6 19 C-5.34 19.33 -4.68 19.66 -4 20 C-5.33926913 25.52448517 -9.39570319 28.98162765 -14 32 C-17.5 32.4375 -17.5 32.4375 -20 32 C-19.59007812 31.54109375 -19.18015625 31.0821875 -18.7578125 30.609375 C-18.21898437 29.99578125 -17.68015625 29.3821875 -17.125 28.75 C-16.59132812 28.14671875 -16.05765625 27.5434375 -15.5078125 26.921875 C-14.0202513 25.02581254 -12.99677564 23.18709995 -12 21 C-13.98 20.67 -15.96 20.34 -18 20 C-13.84443819 14.94593833 -9.37752009 10.29814817 -4.69604492 5.7331543 C-2.00391915 3.129846 -2.00391915 3.129846 0 0 Z " fill="#8D8D8B" transform="translate(171,129)"/>
<path d="M0 0 C2.64 0 5.28 0 8 0 C8 0.99 8 1.98 8 3 C10.49660517 5.79032342 13.16238295 8.13255751 16.0625 10.5 C18.81245111 12.84038392 20.7982897 15.15908348 23 18 C24.6459651 19.68711423 26.31237149 21.3545622 28 23 C28.70125 23.7425 29.4025 24.485 30.125 25.25 C31.97977175 27.22443723 31.97977175 27.22443723 35 28 C35.45375 28.78375 35.9075 29.5675 36.375 30.375 C37.79734935 33.14378165 37.79734935 33.14378165 40.4375 34.375 C43.37080679 36.23514577 44.38984772 38.18956129 45.95703125 41.234375 C47.07394987 43.3002841 47.07394987 43.3002841 49.6875 45.625 C52.17841263 48.18323459 52.70037833 49.50441384 53 53 C46.72483253 47.8157421 40.99907269 42.14534166 35.25390625 36.38671875 C34.23272532 35.36621255 33.21139608 34.34585474 32.18992615 33.32563782 C30.06452538 31.20170208 27.94092102 29.07599112 25.81860352 26.94897461 C23.09261973 24.2172504 20.36211175 21.49009909 17.63028049 18.76422405 C15.52763092 16.66517535 13.42735308 14.56376662 11.32780266 12.46161842 C10.32096771 11.45411514 9.31338594 10.44735762 8.30505562 9.44135094 C6.90481611 8.04363481 5.50809845 6.6423931 4.11157227 5.2409668 C3.31550064 4.44409958 2.51942902 3.64723236 1.69923401 2.82621765 C0 1 0 1 0 0 Z " fill="#CCCFD1" transform="translate(269,117)"/>
<path d="M0 0 C2.90405284 -0.12357672 4.34685357 -0.0910584 7 1 C10.31676526 4.08060317 13.17409375 7.46921918 16 11 C15.34 11.66 14.68 12.32 14 13 C14.433125 13.40992188 14.86625 13.81984375 15.3125 14.2421875 C16.1478125 15.05042969 16.1478125 15.05042969 17 15.875 C17.556875 16.40867188 18.11375 16.94234375 18.6875 17.4921875 C20 19 20 19 20 21 C20.59425781 21.10699219 21.18851563 21.21398437 21.80078125 21.32421875 C24.28549925 22.0877289 25.37724184 22.97432012 27.1875 24.8125 C27.69667969 25.31394531 28.20585937 25.81539062 28.73046875 26.33203125 C30.15664221 28.20580377 30.58610657 29.70114612 31 32 C28.21100811 32.49631463 26.70614733 32.66672292 24 32 C20.6349479 29.58006822 17.89166628 26.64083792 15.0625 23.625 C14.28326172 22.8309375 13.50402344 22.036875 12.70117188 21.21875 C7 15.32270897 7 15.32270897 7 13 C6.34 12.67 5.68 12.34 5 12 C6.98 11.67 8.96 11.34 11 11 C10.37351563 10.37351563 9.74703125 9.74703125 9.1015625 9.1015625 C6.06770833 6.06770833 3.03385417 3.03385417 0 0 Z " fill="#717170" transform="translate(184,213)"/>
<path d="M0 0 C20.95724092 -0.04666763 41.91447331 -0.0819631 62.8717556 -0.10362434 C72.60202137 -0.11394821 82.33225491 -0.12802968 92.0625 -0.15087891 C100.54083929 -0.17077888 109.01915524 -0.18370835 117.49751723 -0.18817699 C121.98903963 -0.19079014 126.48049525 -0.19695508 130.97199631 -0.21146011 C135.19573994 -0.2249905 139.41938899 -0.2292319 143.64315224 -0.22621536 C145.19682262 -0.22676757 146.75049602 -0.23077201 148.30414772 -0.23841095 C150.41865247 -0.24830132 152.53279595 -0.24599083 154.64730835 -0.24050903 C156.42544702 -0.24327441 156.42544702 -0.24327441 158.23950768 -0.24609566 C161 0 161 0 163 2 C161.45355352 3.68157287 159.88719279 5.34484845 158.3125 7 C157.00732422 8.3921875 157.00732422 8.3921875 155.67578125 9.8125 C153 12 153 12 150.16796875 12.3125 C149.45253906 12.209375 148.73710937 12.10625 148 12 C148.93590504 10.8944811 149.87379858 9.79064547 150.8125 8.6875 C151.33457031 8.07261719 151.85664063 7.45773438 152.39453125 6.82421875 C153.86331751 5.15530589 155.42796259 3.57203741 157 2 C79.285 1.505 79.285 1.505 0 1 C0 0.67 0 0.34 0 0 Z " fill="#E9E9E9" transform="translate(58,85)"/>
<path d="M0 0 C20.0272918 -0.02334151 40.05458085 -0.04098535 60.08188343 -0.05181217 C69.38052131 -0.05697246 78.67915074 -0.0640101 87.9777832 -0.07543945 C96.080742 -0.08539442 104.18369468 -0.09185537 112.28665942 -0.09408849 C116.57865988 -0.09539421 120.87064285 -0.09847135 125.16263771 -0.10573006 C129.2000499 -0.11250307 133.23743733 -0.11461433 137.27485466 -0.11310768 C138.75876118 -0.11338343 140.24266851 -0.11538097 141.72657013 -0.11920547 C143.74864101 -0.12416262 145.77072508 -0.12239289 147.7928009 -0.12025452 C149.49212627 -0.12163721 149.49212627 -0.12163721 151.22578144 -0.12304783 C154 0 154 0 157 1 C157 1.66 157 2.32 157 3 C157.66 3 158.32 3 159 3 C162.04395069 5.73955562 164.44396229 8.18063472 166 12 C162.0942676 11.40683971 159.78196414 9.51378095 156.75 7.0625 C155.85796875 6.35222656 154.9659375 5.64195312 154.046875 4.91015625 C153.03367188 3.96462891 153.03367188 3.96462891 152 3 C152 2.34 152 1.68 152 1 C101.84 1 51.68 1 0 1 C0 0.67 0 0.34 0 0 Z " fill="#E9E9E9" transform="translate(58,245)"/>
<path d="M0 0 C43.89 0 87.78 0 133 0 C133 3.75888814 132.049166 4.41318315 129.5625 7.125 C128.92441406 7.82882813 128.28632813 8.53265625 127.62890625 9.2578125 C126.76410115 10.18275992 125.89538137 11.10461863 125 12 C123.00041636 12.04080783 120.99954746 12.04254356 119 12 C119.40992188 11.52949219 119.81984375 11.05898437 120.2421875 10.57421875 C120.78101563 9.95160156 121.31984375 9.32898438 121.875 8.6875 C122.40867187 8.07261719 122.94234375 7.45773438 123.4921875 6.82421875 C125.1640447 4.86501788 125.1640447 4.86501788 127 2 C85.09 1.67 43.18 1.34 0 1 C0 0.67 0 0.34 0 0 Z " fill="#E9E9E9" transform="translate(58,117)"/>
<path d="M0 0 C33.33 0 66.66 0 101 0 C101 3.75888814 100.049166 4.41318315 97.5625 7.125 C96.92441406 7.82882813 96.28632813 8.53265625 95.62890625 9.2578125 C93.06840271 11.99638463 93.06840271 11.99638463 91.15234375 12.09765625 C89.1015625 12.06510417 87.05078125 12.03255208 85 12 C86.77743813 7.37866085 89.06005621 5.93994379 93 2 C62.31 1.67 31.62 1.34 0 1 C0 0.67 0 0.34 0 0 Z " fill="#E9E9E9" transform="translate(58,149)"/>
<path d="M0 0 C2.64 0 5.28 0 8 0 C2.44964797 6.78376359 -3.76442027 12.85522968 -10 19 C-9.01 19.33 -8.02 19.66 -7 20 C-7 20.99 -7 21.98 -7 23 C-7.66 23 -8.32 23 -9 23 C-9.226875 23.556875 -9.45375 24.11375 -9.6875 24.6875 C-11.40622159 27.71572375 -13.32788397 29.77323664 -16 32 C-18.1640625 31.63671875 -18.1640625 31.63671875 -20 31 C-19.4225 30.36191406 -18.845 29.72382812 -18.25 29.06640625 C-17.5075 28.24011719 -16.765 27.41382812 -16 26.5625 C-15.2575 25.73878906 -14.515 24.91507813 -13.75 24.06640625 C-11.89228908 22.32412545 -11.89228908 22.32412545 -12 21 C-13.98 20.67 -15.96 20.34 -18 20 C-13.84443819 14.94593833 -9.37752009 10.29814817 -4.69604492 5.7331543 C-2.00391915 3.129846 -2.00391915 3.129846 0 0 Z " fill="#8D8D8B" transform="translate(203,97)"/>
<path d="M0 0 C3.70291514 0.26978382 5.52637585 0.55169025 8.265625 3.14453125 C8.92046875 4.02496094 9.5753125 4.90539062 10.25 5.8125 C10.91515625 6.68519531 11.5803125 7.55789062 12.265625 8.45703125 C13.72785432 10.60097559 14.85669379 12.68316803 16 15 C16.639375 15.639375 17.27875 16.27875 17.9375 16.9375 C20.15137457 19.15137457 21.40838782 21.30650246 23 24 C24.9561264 26.70035958 26.97115791 29.3539697 29 32 C25.89810147 32.31618173 24.4465572 32.32079169 21.87182617 30.47119141 C21.18580322 29.77171387 20.49978027 29.07223633 19.79296875 28.3515625 C19.04208984 27.59359375 18.29121094 26.835625 17.51757812 26.0546875 C16.74865234 25.25289062 15.97972656 24.45109375 15.1875 23.625 C14.39923828 22.8309375 13.61097656 22.036875 12.79882812 21.21875 C7 15.29440611 7 15.29440611 7 13 C6.34 12.67 5.68 12.34 5 12 C6.98 11.67 8.96 11.34 11 11 C7.67033827 6.82362017 4.79471195 3.53837692 0 1 C0 0.67 0 0.34 0 0 Z " fill="#717170" transform="translate(152,181)"/>
<path d="M0 0 C0.54914063 0.5053125 1.09828125 1.010625 1.6640625 1.53125 C2.55931641 2.35496094 2.55931641 2.35496094 3.47265625 3.1953125 C6.24944038 6.00195453 8.80920188 8.96094638 11.2890625 12.03125 C9.9690625 12.36125 8.6490625 12.69125 7.2890625 13.03125 C9.62859309 16.24810457 12.14681 18.8456315 15.1640625 21.40625 C18.98134675 24.65880493 22.11995516 28.14909351 25.2890625 32.03125 C22.58203125 32.32421875 22.58203125 32.32421875 19.2890625 32.03125 C16.83984375 30.01953125 16.83984375 30.01953125 14.6015625 27.34375 C13.48201172 26.03857422 13.48201172 26.03857422 12.33984375 24.70703125 C10.44073694 22.22914903 8.85818633 19.72506374 7.2890625 17.03125 C5.96096035 15.36041181 4.62733554 13.69395287 3.2890625 12.03125 C2.6084375 11 1.9278125 9.96875 1.2265625 8.90625 C-0.5328724 6.09777544 -0.5328724 6.09777544 -2.4609375 4.28125 C-2.8734375 3.86875 -3.2859375 3.45625 -3.7109375 3.03125 C-3.7109375 2.37125 -3.7109375 1.71125 -3.7109375 1.03125 C-4.3709375 0.70125 -5.0309375 0.37125 -5.7109375 0.03125 C-2.21172823 -1.25230274 -2.21172823 -1.25230274 0 0 Z " fill="#555554" transform="translate(161.7109375,180.96875)"/>
<path d="M0 0 C-5.55035203 6.78376359 -11.76442027 12.85522968 -18 19 C-17.34 19.33 -16.68 19.66 -16 20 C-17.40155759 23.33772993 -18.9509686 25.01749057 -21.875 27.125 C-22.55304688 27.62257813 -23.23109375 28.12015625 -23.9296875 28.6328125 C-25.8975595 29.93235061 -27.86853684 30.99639627 -30 32 C-29.57847656 31.51789063 -29.15695313 31.03578125 -28.72265625 30.5390625 C-27.90087891 29.59160156 -27.90087891 29.59160156 -27.0625 28.625 C-26.51722656 27.99851562 -25.97195312 27.37203125 -25.41015625 26.7265625 C-23.93041376 25.04367666 -23.93041376 25.04367666 -23 23 C-22.34 23 -21.68 23 -21 23 C-21 22.01 -21 21.02 -21 20 C-22.32 19.67 -23.64 19.34 -25 19 C-21.98311311 15.80890733 -18.93275761 12.65191144 -15.875 9.5 C-14.59109375 8.14068359 -14.59109375 8.14068359 -13.28125 6.75390625 C-12.44335938 5.89667969 -11.60546875 5.03945312 -10.7421875 4.15625 C-9.9776123 3.36025391 -9.21303711 2.56425781 -8.42529297 1.74414062 C-5.41943451 -0.41751156 -3.62217891 -0.34802225 0 0 Z " fill="#757473" transform="translate(217,97)"/>
<path d="M0 0 C2.4375 1 2.4375 1 4 2 C4 2.66 4 3.32 4 4 C4.66 4.33 5.32 4.66 6 5 C2.82650057 6.70285335 -0.08545708 8.02398795 -3.5625 9 C-7.9939624 10.2891527 -10.93815477 11.84162338 -14.0625 15.25 C-14.701875 15.8275 -15.34125 16.405 -16 17 C-18.12109375 16.609375 -18.12109375 16.609375 -20 16 C-18.73232923 14.70522938 -17.46073776 13.41429661 -16.1875 12.125 C-15.47980469 11.40570313 -14.77210938 10.68640625 -14.04296875 9.9453125 C-12 8 -12 8 -9 6 C-11.97 5.505 -11.97 5.505 -15 5 C-14.4225 4.731875 -13.845 4.46375 -13.25 4.1875 C-10.95690644 3.09368365 -10.95690644 3.09368365 -9.1875 1.375 C-6.03433303 -0.60699067 -3.65250435 -0.32611646 0 0 Z " fill="#9D9F9F" transform="translate(235,80)"/>
<path d="M0 0 C-3.93592802 4.8355687 -8.14197146 9.42090065 -12.4375 13.9375 C-12.97463623 14.52942139 -13.51177246 15.12134277 -14.06518555 15.73120117 C-17.15577587 18.9224956 -18.30957474 19.93309565 -22.91015625 20.37890625 C-24.43962891 20.19134766 -24.43962891 20.19134766 -26 20 C-22.06407198 15.1644313 -17.85802854 10.57909935 -13.5625 6.0625 C-13.02536377 5.47057861 -12.48822754 4.87865723 -11.93481445 4.26879883 C-8.07570247 0.28394115 -5.76906617 -0.70745818 0 0 Z " fill="#788186" transform="translate(275,225)"/>
<path d="M0 0 C2.97 0.495 2.97 0.495 6 1 C6 1.66 6 2.32 6 3 C6.61875 3.28875 7.2375 3.5775 7.875 3.875 C10 5 10 5 12 7 C14.52038941 7.6849487 14.52038941 7.6849487 17.375 8.125 C18.33148438 8.29257813 19.28796875 8.46015625 20.2734375 8.6328125 C23.20217295 9.0889771 23.20217295 9.0889771 27 9 C29.17099224 7.01102925 29.17099224 7.01102925 31.25 4.5 C35.33865124 0.16725018 35.33865124 0.16725018 38.36328125 -0.59765625 C40.5625 -0.5625 40.5625 -0.5625 44 0 C43.13568359 0.40605469 43.13568359 0.40605469 42.25390625 0.8203125 C39.97564222 2.01274879 37.99954856 3.34137621 35.9375 4.875 C34.93009766 5.61363281 34.93009766 5.61363281 33.90234375 6.3671875 C31.8918951 7.90581543 31.8918951 7.90581543 30.77734375 10.16015625 C29 12 29 12 25.1640625 12.56640625 C23.65117206 12.5863127 22.13786546 12.58422189 20.625 12.5625 C19.86960938 12.58634766 19.11421875 12.61019531 18.3359375 12.63476562 C14.08245417 12.62361139 12.46424248 12.37531889 9.04296875 9.609375 C7.33907115 7.4330775 6.03824031 5.54840804 5 3 C4.34 3 3.68 3 3 3 C3 2.34 3 1.68 3 1 C2.01 0.67 1.02 0.34 0 0 Z " fill="#B2B3B4" transform="translate(212,245)"/>
<path d="M0 0 C3.5097367 -0.31218682 5.38894864 -0.42437319 8.33349609 1.62060547 C9.05617676 2.36197754 9.77885742 3.10334961 10.5234375 3.8671875 C11.71259766 5.07181641 11.71259766 5.07181641 12.92578125 6.30078125 C13.73402344 7.15027344 14.54226562 7.99976563 15.375 8.875 C16.20644531 9.71675781 17.03789062 10.55851563 17.89453125 11.42578125 C24 17.6916564 24 17.6916564 24 20 C21.87109375 20.35546875 21.87109375 20.35546875 19 20 C16.81610756 18.1570652 14.97603993 16.40244823 13.0625 14.3125 C12.05598191 13.24364273 11.04687473 12.17721746 10.03515625 11.11328125 C9.54031738 10.58943848 9.04547852 10.0655957 8.53564453 9.52587891 C6.99325844 7.99330131 5.3839859 6.64627996 3.68359375 5.29296875 C1 3 1 3 0 0 Z " fill="#353A3D" transform="translate(168,193)"/>
<path d="M0 0 C0.9075 0.103125 1.815 0.20625 2.75 0.3125 C2.255 1.158125 1.76 2.00375 1.25 2.875 C-0.65499211 7.24060691 -1.12924135 10.72530705 0.4296875 15.3125 C1.14605125 17.00448296 1.94179418 18.66241312 2.75 20.3125 C0.11 20.3125 -2.53 20.3125 -5.25 20.3125 C-5.31058594 19.48105469 -5.37117187 18.64960938 -5.43359375 17.79296875 C-5.51738281 16.70628906 -5.60117188 15.61960938 -5.6875 14.5 C-5.76871094 13.42105469 -5.84992188 12.34210938 -5.93359375 11.23046875 C-6.15212461 8.25260095 -6.15212461 8.25260095 -7.25 5.3125 C-5.14532708 1.69246258 -4.25783369 0.40940709 0 0 Z " fill="#777776" transform="translate(147.25,160.6875)"/>
<path d="M0 0 C1.32 0.33 2.64 0.66 4 1 C-1.94 6.94 -7.88 12.88 -14 19 C-13.34 19.33 -12.68 19.66 -12 20 C-13.37031105 25.65253308 -17.67689413 28.5113541 -22 32 C-22 27.72159739 -19.71595568 26.17965543 -17 23 C-16.67 22.01 -16.34 21.02 -16 20 C-16.99 19.67 -17.98 19.34 -19 19 C-15.93700693 15.7924002 -12.84654508 12.61269463 -9.75 9.4375 C-8.87730469 8.52291016 -8.00460938 7.60832031 -7.10546875 6.66601562 C-6.26113281 5.80556641 -5.41679687 4.94511719 -4.546875 4.05859375 C-3.77182617 3.25736084 -2.99677734 2.45612793 -2.19824219 1.63061523 C-1.47282227 1.09251221 -0.74740234 0.55440918 0 0 Z " fill="#757473" transform="translate(179,129)"/>
<path d="M0 0 C-1.13676576 3.41029729 -2.64785766 4.49328613 -5.390625 6.6875 C-10.33250234 10.7177689 -16.7194229 16.34120829 -18.875 22.5 C-20.75306032 26.67346739 -24.49033593 29.16778271 -28 32 C-28.66 31.67 -29.32 31.34 -30 31 C-29.44570312 30.54109375 -28.89140625 30.0821875 -28.3203125 29.609375 C-27.59585938 28.99578125 -26.87140625 28.3821875 -26.125 27.75 C-25.40570313 27.14671875 -24.68640625 26.5434375 -23.9453125 25.921875 C-22.02947882 24.02912366 -21.03550955 22.46342273 -20 20 C-20.99 19.67 -21.98 19.34 -23 19 C-19.93299592 15.81715905 -16.8438598 12.65672488 -13.75 9.5 C-12.44095703 8.14068359 -12.44095703 8.14068359 -11.10546875 6.75390625 C-10.26113281 5.89667969 -9.41679687 5.03945312 -8.546875 4.15625 C-7.77182617 3.36025391 -6.99677734 2.56425781 -6.19824219 1.74414062 C-4 0 -4 0 0 0 Z " fill="#585958" transform="translate(187,129)"/>
<path d="M0 0 C3.3125 -0.3125 3.3125 -0.3125 7 0 C8.625 2.25 8.625 2.25 10 5 C11.65002828 6.35386936 13.3174387 7.68678142 15 9 C16.35386936 10.65002828 17.68678142 12.3174387 19 14 C19.9075 14.9075 20.815 15.815 21.75 16.75 C22.4925 17.4925 23.235 18.235 24 19 C24 19.33 24 19.66 24 20 C20.71432132 20.38298431 19.38264581 20.28606502 16.68823242 18.27172852 C15.91842041 17.48209717 15.1486084 16.69246582 14.35546875 15.87890625 C13.51435547 15.02619141 12.67324219 14.17347656 11.80664062 13.29492188 C10.94232422 12.39322266 10.07800781 11.49152344 9.1875 10.5625 C8.30384766 9.66466797 7.42019531 8.76683594 6.50976562 7.84179688 C0 1.18122587 0 1.18122587 0 0 Z " fill="#848687" transform="translate(249,97)"/>
<path d="M0 0 C11.07422773 -1.06353102 11.07422773 -1.06353102 15.50390625 1.3828125 C17.51920892 3.14954843 19.27598613 4.94982134 21 7 C22.2375 8.4540625 22.2375 8.4540625 23.5 9.9375 C23.995 10.618125 24.49 11.29875 25 12 C21.90936947 12.44151865 19.99171871 12.68454581 17 12 C14.6028022 10.13319266 12.67626722 8.12040541 10.6640625 5.84765625 C9.12126773 3.90841457 9.12126773 3.90841457 7 3 C7 2.34 7 1.68 7 1 C4.69 1 2.38 1 0 1 C0 0.67 0 0.34 0 0 Z " fill="#D3D3D3" transform="translate(171,213)"/>
<path d="M0 0 C1.4540625 0.0309375 1.4540625 0.0309375 2.9375 0.0625 C1.1875 3.9375 1.1875 3.9375 -1.0625 5.0625 C-2.48793949 10.12078197 -2.48793949 10.12078197 -1.0078125 14.890625 C0.2395323 16.34233703 1.58410855 17.70910855 2.9375 19.0625 C2.9375 19.3925 2.9375 19.7225 2.9375 20.0625 C0.9575 20.0625 -1.0225 20.0625 -3.0625 20.0625 C-6.2575441 15.17008872 -7.84324782 12.08541176 -7.0625 6.0625 C-4.07280928 0.08311856 -4.07280928 0.08311856 0 0 Z " fill="#525251" transform="translate(153.0625,160.9375)"/>
<path d="M0 0 C5.2258095 -0.65322619 8.9500749 -0.5297481 13.3125 2.625 C16.62682753 5.40347817 18.86158409 8.25777216 21 12 C17.83003056 12.51872227 16.06307158 12.7594808 13 12 C9.56146456 9.37738822 6.65867804 6.40950842 4 3 C4 2.34 4 1.68 4 1 C2.68 0.67 1.36 0.34 0 0 Z " fill="#D1D1D0" transform="translate(143,181)"/>
<path d="M0 0 C0.33 0.99 0.66 1.98 1 3 C-0.6953125 5.5234375 -0.6953125 5.5234375 -3.125 8.375 C-4.30449219 9.77878906 -4.30449219 9.77878906 -5.5078125 11.2109375 C-7.91835548 13.90862981 -10.42055649 16.46449931 -13 19 C-13.515625 19.556875 -14.03125 20.11375 -14.5625 20.6875 C-16.28303417 22.2584225 -17.81742865 23.18153575 -20 24 C-20.99 23.67 -21.98 23.34 -23 23 C-15.41 15.41 -7.82 7.82 0 0 Z " fill="#C2C8CC" transform="translate(299,194)"/>
<path d="M0 0 C4.42723064 0.49342694 6.34964147 1.87049446 9.42578125 5.03515625 C10.22177734 5.84404297 11.01777344 6.65292969 11.83789062 7.48632812 C12.65451172 8.33646484 13.47113281 9.18660156 14.3125 10.0625 C15.14845703 10.91650391 15.98441406 11.77050781 16.84570312 12.65039062 C18.90642344 14.75821312 20.95723209 16.87479849 23 19 C22.67 19.66 22.34 20.32 22 21 C17.11074767 18.47171743 13.66850717 14.89732947 9.875 11 C9.25496094 10.3709375 8.63492188 9.741875 7.99609375 9.09375 C6.84385823 7.924169 5.69370007 6.75253484 4.54638672 5.578125 C3.48006481 4.48991774 2.39716939 3.41778936 1.30126953 2.359375 C0 1 0 1 0 0 Z " fill="#353A3D" transform="translate(202,225)"/>
<path d="M0 0 C7.26 0 14.52 0 22 0 C18.49444251 3.50555749 17.33444952 4.51716201 13 6 C12.01 6.495 12.01 6.495 11 7 C11 6.34 11 5.68 11 5 C8.69 4.67 6.38 4.34 4 4 C3.67 3.01 3.34 2.02 3 1 C2.01 0.67 1.02 0.34 0 0 Z " fill="#8D8D8C" transform="translate(221,257)"/>
<path d="M0 0 C0.66 0.33 1.32 0.66 2 1 C-3.94 6.94 -9.88 12.88 -16 19 C-15.34 19.33 -14.68 19.66 -14 20 C-15.40155759 23.33772993 -16.9509686 25.01749057 -19.875 27.125 C-20.55304688 27.62257813 -21.23109375 28.12015625 -21.9296875 28.6328125 C-23.8975595 29.93235061 -25.86853684 30.99639627 -28 32 C-27.57847656 31.51789063 -27.15695313 31.03578125 -26.72265625 30.5390625 C-25.90087891 29.59160156 -25.90087891 29.59160156 -25.0625 28.625 C-24.51722656 27.99851562 -23.97195312 27.37203125 -23.41015625 26.7265625 C-21.93041376 25.04367666 -21.93041376 25.04367666 -21 23 C-20.34 23 -19.68 23 -19 23 C-18.9182251 22.26628174 -18.8364502 21.53256348 -18.75219727 20.77661133 C-17.82880128 17.36804835 -16.48457161 16.02346471 -13.96484375 13.57421875 C-13.15595703 12.77822266 -12.34707031 11.98222656 -11.51367188 11.16210938 C-10.66353516 10.34548828 -9.81339844 9.52886719 -8.9375 8.6875 C-8.08349609 7.85154297 -7.22949219 7.01558594 -6.34960938 6.15429688 C-4.24178688 4.09357656 -2.12520151 2.04276791 0 0 Z " fill="#5F5F5F" transform="translate(215,97)"/>
<path d="M0 0 C1.32 0.33 2.64 0.66 4 1 C-2.27 7.27 -8.54 13.54 -15 20 C-15.99 19.67 -16.98 19.34 -18 19 C-16.88200014 17.66079162 -15.75538103 16.32877444 -14.625 15 C-13.68527344 13.88625 -13.68527344 13.88625 -12.7265625 12.75 C-11.87191406 11.88375 -11.87191406 11.88375 -11 11 C-10.34 11 -9.68 11 -9 11 C-8.773125 10.4225 -8.54625 9.845 -8.3125 9.25 C-6.66800353 6.43086319 -4.5644533 4.98745131 -2 3 C-1.34 2.01 -0.68 1.02 0 0 Z " fill="#343637" transform="translate(189,129)"/>
<path d="M0 0 C0.66 0.33 1.32 0.66 2 1 C1.2575 1.721875 0.515 2.44375 -0.25 3.1875 C-2.95860519 5.84683316 -2.95860519 5.84683316 -4.875 8.4375 C-7.20216433 11.2437864 -9.74057488 13.34036283 -12.609375 15.5703125 C-14.34862309 17.02600698 -14.34862309 17.02600698 -14 20 C-15.13671875 21.6484375 -15.13671875 21.6484375 -16.6875 23.375 C-17.23019531 23.98214844 -17.77289063 24.58929688 -18.33203125 25.21484375 C-20.50166024 27.53690569 -22.71954485 29.78661706 -25 32 C-25.99 31.67 -26.98 31.34 -28 31 C-27.51789063 30.62488281 -27.03578125 30.24976563 -26.5390625 29.86328125 C-22.70067594 26.75340479 -20.7135655 24.68374569 -19 20 C-17.13580325 17.54165867 -15.10182317 15.25691953 -13 13 C-12.48308594 12.43539062 -11.96617187 11.87078125 -11.43359375 11.2890625 C-10 10 -10 10 -8 10 C-7.773125 9.4225 -7.54625 8.845 -7.3125 8.25 C-5.67083893 5.43572387 -3.56440947 3.97262267 -1 2 C-0.67 1.34 -0.34 0.68 0 0 Z " fill="#424242" transform="translate(187,129)"/>
<path d="M0 0 C2.31 0 4.62 0 7 0 C7 3.75888814 6.049166 4.41318315 3.5625 7.125 C2.92441406 7.82882813 2.28632813 8.53265625 1.62890625 9.2578125 C0.76410115 10.18275992 -0.10461863 11.10461863 -1 12 C-2.99958364 12.04080783 -5.00045254 12.04254356 -7 12 C-6.59007812 11.52949219 -6.18015625 11.05898437 -5.7578125 10.57421875 C-5.21898437 9.95160156 -4.68015625 9.32898438 -4.125 8.6875 C-3.59132812 8.07261719 -3.05765625 7.45773438 -2.5078125 6.82421875 C-0.8359553 4.86501788 -0.8359553 4.86501788 1 2 C0.67 1.34 0.34 0.68 0 0 Z " fill="#CCCCCC" transform="translate(184,117)"/>
<path d="M0 0 C2.4375 1 2.4375 1 4 2 C4 2.66 4 3.32 4 4 C4.66 4.33 5.32 4.66 6 5 C-0.93 5 -7.86 5 -15 5 C-13.68 4.34 -12.36 3.68 -11 3 C-10.401875 2.46375 -9.80375 1.9275 -9.1875 1.375 C-6.03433303 -0.60699067 -3.65250435 -0.32611646 0 0 Z " fill="#8B8B8A" transform="translate(235,80)"/>
<path d="M0 0 C0.99 0.33 1.98 0.66 3 1 C-0.04196981 4.18695297 -3.11171693 7.34569585 -6.1875 10.5 C-7.05181641 11.40621094 -7.91613281 12.31242188 -8.80664062 13.24609375 C-9.64775391 14.10332031 -10.48886719 14.96054688 -11.35546875 15.84375 C-12.12528076 16.63974609 -12.89509277 17.43574219 -13.68823242 18.25585938 C-16.38296861 20.28893524 -17.70402669 20.38746167 -21 20 C-15.44442098 14.25923501 -9.54167269 8.77196257 -3.25 3.84765625 C-0.92899091 2.19749727 -0.92899091 2.19749727 0 0 Z " fill="#929292" transform="translate(272,225)"/>
<path d="M0 0 C2.64 0 5.28 0 8 0 C8 0.99 8 1.98 8 3 C9.64488294 4.68816933 11.31337542 6.35353315 13 8 C14.375 10.125 14.375 10.125 15 12 C14.67 12.99 14.34 13.98 14 15 C11.66265901 12.69152056 9.33081534 10.37756659 7 8.0625 C6.33226562 7.40314453 5.66453125 6.74378906 4.9765625 6.06445312 C4.34492188 5.43603516 3.71328125 4.80761719 3.0625 4.16015625 C2.47597656 3.57886963 1.88945312 2.99758301 1.28515625 2.39868164 C0 1 0 1 0 0 Z " fill="#C7CACB" transform="translate(269,117)"/>
<path d="M0 0 C2.31 0 4.62 0 7 0 C7 0.99 7 1.98 7 3 C9.2704415 5.52093031 9.2704415 5.52093031 12 8 C13.33333333 9.33333333 14.66666667 10.66666667 16 12 C12.0253378 12.45458013 10.46461189 12.35467555 7.2265625 9.8828125 C6.36804688 8.97273438 5.50953125 8.06265625 4.625 7.125 C3.75101563 6.22007813 2.87703125 5.31515625 1.9765625 4.3828125 C0 2 0 2 0 0 Z " fill="#CCCECF" transform="translate(238,85)"/>
<path d="M0 0 C3.73035921 0.56495418 5.37287845 2.04826007 7.9375 4.75 C8.63359375 5.47445312 9.3296875 6.19890625 10.046875 6.9453125 C10.69140625 7.62335938 11.3359375 8.30140625 12 9 C12.886875 9.86625 13.77375 10.7325 14.6875 11.625 C17.29542263 14.30340703 19.64063876 17.1013562 22 20 C18.36832308 19.42214146 16.67805608 18.05312904 14.109375 15.47265625 C13.40039062 14.76302734 12.69140625 14.05339844 11.9609375 13.32226562 C11.23132813 12.57654297 10.50171875 11.83082031 9.75 11.0625 C8.63238281 9.9497168 8.63238281 9.9497168 7.4921875 8.81445312 C2 3.26694139 2 3.26694139 2 1 C1.34 0.67 0.68 0.34 0 0 Z " fill="#898988" transform="translate(189,225)"/>
<path d="M0 0 C3.73035921 0.56495418 5.37287845 2.04826007 7.9375 4.75 C8.63359375 5.47445312 9.3296875 6.19890625 10.046875 6.9453125 C10.69140625 7.62335938 11.3359375 8.30140625 12 9 C12.886875 9.86625 13.77375 10.7325 14.6875 11.625 C17.29542263 14.30340703 19.64063876 17.1013562 22 20 C18.36832308 19.42214146 16.67805608 18.05312904 14.109375 15.47265625 C13.40039062 14.76302734 12.69140625 14.05339844 11.9609375 13.32226562 C11.23132813 12.57654297 10.50171875 11.83082031 9.75 11.0625 C8.63238281 9.9497168 8.63238281 9.9497168 7.4921875 8.81445312 C2 3.26694139 2 3.26694139 2 1 C1.34 0.67 0.68 0.34 0 0 Z " fill="#898988" transform="translate(157,193)"/>
<path d="M0 0 C1.32 0.33 2.64 0.66 4 1 C-2.27 7.27 -8.54 13.54 -15 20 C-15.99 19.67 -16.98 19.34 -18 19 C-17.49025635 18.49549316 -16.9805127 17.99098633 -16.45532227 17.47119141 C-14.15511905 15.19172966 -11.85877123 12.90842239 -9.5625 10.625 C-8.76005859 9.8309375 -7.95761719 9.036875 -7.13085938 8.21875 C-6.36708984 7.45820313 -5.60332031 6.69765625 -4.81640625 5.9140625 C-4.10943604 5.2123291 -3.40246582 4.5105957 -2.67407227 3.78759766 C-0.92780016 2.09306909 -0.92780016 2.09306909 0 0 Z " fill="#9B9C9C" transform="translate(171,129)"/>
<path d="M0 0 C1.32 0.33 2.64 0.66 4 1 C-2.27 7.27 -8.54 13.54 -15 20 C-15.99 19.67 -16.98 19.34 -18 19 C-17.49025635 18.49549316 -16.9805127 17.99098633 -16.45532227 17.47119141 C-14.15511905 15.19172966 -11.85877123 12.90842239 -9.5625 10.625 C-8.76005859 9.8309375 -7.95761719 9.036875 -7.13085938 8.21875 C-6.36708984 7.45820312 -5.60332031 6.69765625 -4.81640625 5.9140625 C-4.10943604 5.2123291 -3.40246582 4.5105957 -2.67407227 3.78759766 C-0.92780016 2.09306909 -0.92780016 2.09306909 0 0 Z " fill="#9B9C9C" transform="translate(203,97)"/>
<path d="M0 0 C0.99 0.33 1.98 0.66 3 1 C-3.27 7.27 -9.54 13.54 -16 20 C-16.99 19.67 -17.98 19.34 -19 19 C-12.73 12.73 -6.46 6.46 0 0 Z " fill="#9E9F9F" transform="translate(275,225)"/>
<path d="M0 0 C2.31 0.33 4.62 0.66 7 1 C5.01929545 3.35043607 3.01380923 5.67790392 1 8 C0.319375 8.804375 -0.36125 9.60875 -1.0625 10.4375 C-3 12 -3 12 -5.75 12.25 C-6.4925 12.1675 -7.235 12.085 -8 12 C-7.06409496 10.8944811 -6.12620142 9.79064547 -5.1875 8.6875 C-4.66542969 8.07261719 -4.14335937 7.45773438 -3.60546875 6.82421875 C-2.12827531 5.14575321 -0.59960869 3.56117966 1 2 C0.67 1.34 0.34 0.68 0 0 Z " fill="#E2E2E2" transform="translate(214,85)"/>
<path d="M0 0 C4.67615869 0.44963064 7.39116278 1.01337609 11 4 C12.0209375 4.2165625 12.0209375 4.2165625 13.0625 4.4375 C15.72881522 5.21159152 16.44184069 6.77973333 18 9 C8.32350236 8.78964136 8.32350236 8.78964136 4.375 5.5625 C2 3 2 3 2 1 C1.34 0.67 0.68 0.34 0 0 Z " fill="#8A8C8D" transform="translate(216,245)"/>
<path d="M0 0 C0.54914063 0.5053125 1.09828125 1.010625 1.6640625 1.53125 C2.55931641 2.35496094 2.55931641 2.35496094 3.47265625 3.1953125 C6.24944038 6.00195453 8.80920188 8.96094638 11.2890625 12.03125 C9.078125 12.3359375 9.078125 12.3359375 6.2890625 12.03125 C3.9375 9.9140625 3.9375 9.9140625 1.6640625 7.15625 C-0.74941742 4.26501637 -2.56492025 2.12859484 -5.7109375 0.03125 C-2.21172823 -1.25230274 -2.21172823 -1.25230274 0 0 Z " fill="#505658" transform="translate(193.7109375,212.96875)"/>
<path d="M0 0 C-1.54644648 1.68157287 -3.11280721 3.34484845 -4.6875 5 C-5.99267578 6.3921875 -5.99267578 6.3921875 -7.32421875 7.8125 C-10 10 -10 10 -12.83203125 10.3125 C-13.90517578 10.1578125 -13.90517578 10.1578125 -15 10 C-11.78289306 4.46657607 -7.09338249 -2.5044618 0 0 Z " fill="#E7E7E7" transform="translate(256,247)"/>
<path d="M0 0 C1.43739513 -0.02712066 2.87493863 -0.04645067 4.3125 -0.0625 C5.51326172 -0.07990234 5.51326172 -0.07990234 6.73828125 -0.09765625 C9 0 9 0 12 1 C12 1.66 12 2.32 12 3 C12.66 3 13.32 3 14 3 C17.04395069 5.73955562 19.44396229 8.18063472 21 12 C17.0942676 11.40683971 14.78196414 9.51378095 11.75 7.0625 C10.85796875 6.35222656 9.9659375 5.64195312 9.046875 4.91015625 C8.37140625 4.27980469 7.6959375 3.64945313 7 3 C7 2.34 7 1.68 7 1 C4.69 1 2.38 1 0 1 C0 0.67 0 0.34 0 0 Z " fill="#D2D2D2" transform="translate(203,245)"/>
<path d="M0 0 C3.375 -0.125 3.375 -0.125 7 0 C7.66 0.66 8.32 1.32 9 2 C8.154375 2.350625 7.30875 2.70125 6.4375 3.0625 C2.7182006 5.15883239 0.47724295 7.47698702 -2.2890625 10.671875 C-2.85367188 11.11015625 -3.41828125 11.5484375 -4 12 C-5.32 11.67 -6.64 11.34 -8 11 C-5.03 8.03 -2.06 5.06 1 2 C0.67 1.34 0.34 0.68 0 0 Z " fill="#C2C2C2" transform="translate(219,85)"/>
<path d="M0 0 C-0.97866338 1.14626322 -1.95794587 2.29199788 -2.9375 3.4375 C-3.48277344 4.07558594 -4.02804688 4.71367188 -4.58984375 5.37109375 C-5.36795695 6.26991149 -6.15936528 7.15936528 -7 8 C-9.33297433 8.04092937 -11.66705225 8.04241723 -14 8 C-13.07038578 6.84775972 -12.1309875 5.70340824 -11.1875 4.5625 C-10.66542969 3.92441406 -10.14335937 3.28632812 -9.60546875 2.62890625 C-6.74989383 -0.2683559 -3.84492684 -0.10391694 0 0 Z " fill="#696C6D" transform="translate(233,89)"/>
<path d="M0 0 C2.90405284 -0.12357672 4.34685357 -0.0910584 7 1 C10.31676526 4.08060317 13.17409375 7.46921918 16 11 C14.3203125 11.80078125 14.3203125 11.80078125 12 12 C9.4921875 9.98046875 9.4921875 9.98046875 6.875 7.1875 C6.00617188 6.27355469 5.13734375 5.35960937 4.2421875 4.41796875 C3.50226563 3.62003906 2.76234375 2.82210937 2 2 C1.34 1.34 0.68 0.68 0 0 Z " fill="#7F8080" transform="translate(184,213)"/>
<path d="M0 0 C0.66 0.66 1.32 1.32 2 2 C1.2628641 3.29905098 0.50969444 4.58901122 -0.25 5.875 C-0.66765625 6.59429687 -1.0853125 7.31359375 -1.515625 8.0546875 C-3.17205015 10.22547625 -4.55535265 10.87869481 -7 12 C-7.33 12.66 -7.66 13.32 -8 14 C-8.66 14 -9.32 14 -10 14 C-10 14.66 -10 15.32 -10 16 C-11.32 15.67 -12.64 15.34 -14 15 C-13.07316406 14.08476562 -12.14632813 13.16953125 -11.19140625 12.2265625 C-9.98163961 11.0261739 -8.77201135 9.82564583 -7.5625 8.625 C-6.95083984 8.02171875 -6.33917969 7.4184375 -5.70898438 6.796875 C-5.12568359 6.21679688 -4.54238281 5.63671875 -3.94140625 5.0390625 C-3.40201416 4.50490723 -2.86262207 3.97075195 -2.30688477 3.42041016 C-0.89153023 2.01347612 -0.89153023 2.01347612 0 0 Z " fill="#C4CDD3" transform="translate(322,170)"/>
<path d="M0 0 C1.32 0.33 2.64 0.66 4 1 C2.28566742 2.8494376 0.55587991 4.67829108 -1.1875 6.5 C-1.91163086 7.28697266 -1.91163086 7.28697266 -2.65039062 8.08984375 C-5.03318416 10.5525968 -6.39747337 11.92766392 -9.86328125 12.34375 C-10.56839844 12.2303125 -11.27351562 12.116875 -12 12 C-8.6662856 7.68578136 -5.64873382 4.95828516 -1 2 C-0.67 1.34 -0.34 0.68 0 0 Z " fill="#4E5254" transform="translate(201,117)"/>
<path d="M0 0 C2.9217832 0.3130482 3.85149204 0.81966891 5.75 3.125 C6.4925 4.07375 7.235 5.0225 8 6 C9.27237392 7.14677478 10.56607481 8.27012778 11.875 9.375 C15.69228425 12.62755493 18.83089266 16.11784351 22 20 C19.6875 19.8125 19.6875 19.8125 17 19 C15.4375 16.6875 15.4375 16.6875 14 14 C11.61759651 11.31979608 10.43387177 10.14462392 7 9 C5.17578125 7.1875 5.17578125 7.1875 3.3125 5 C2.68988281 4.278125 2.06726563 3.55625 1.42578125 2.8125 C0 1 0 1 0 0 Z " fill="#555554" transform="translate(197,225)"/>
<path d="M0 0 C0.54914063 0.5053125 1.09828125 1.010625 1.6640625 1.53125 C2.55931641 2.35496094 2.55931641 2.35496094 3.47265625 3.1953125 C6.24944038 6.00195453 8.80920188 8.96094638 11.2890625 12.03125 C6.67023113 11.56610267 4.78486537 9.94512765 1.6640625 6.59375 C-0.75545041 4.02146921 -2.76086993 1.99796171 -5.7109375 0.03125 C-2.21172823 -1.25230274 -2.21172823 -1.25230274 0 0 Z " fill="#4D5357" transform="translate(161.7109375,180.96875)"/>
<path d="M0 0 C1.65 0 3.3 0 5 0 C5 0.99 5 1.98 5 3 C4.34 3 3.68 3 3 3 C2.773125 3.556875 2.54625 4.11375 2.3125 4.6875 C0.59377841 7.71572375 -1.32788397 9.77323664 -4 12 C-6.1640625 11.63671875 -6.1640625 11.63671875 -8 11 C-7.4225 10.37351562 -6.845 9.74703125 -6.25 9.1015625 C-5.13625 7.87566406 -5.13625 7.87566406 -4 6.625 C-3.2575 5.81289062 -2.515 5.00078125 -1.75 4.1640625 C0.20959813 2.20466008 0.20959813 2.20466008 0 0 Z " fill="#A3A4A4" transform="translate(191,117)"/>
<path d="M0 0 C-0.86431641 0.40605469 -0.86431641 0.40605469 -1.74609375 0.8203125 C-4.02435778 2.01274879 -6.00045144 3.34137621 -8.0625 4.875 C-8.73410156 5.36742187 -9.40570313 5.85984375 -10.09765625 6.3671875 C-12.09861306 7.95155558 -12.09861306 7.95155558 -13.55859375 10.1953125 C-14.03425781 10.79085937 -14.50992188 11.38640625 -15 12 C-15.99 12 -16.98 12 -18 12 C-14.37679255 3.87523178 -9.04397835 -1.29199691 0 0 Z " fill="#BAC3C9" transform="translate(256,245)"/>
<path d="M0 0 C5.46898941 0.37689516 7.67434261 2.11179819 11.375 6.0625 C12.24898437 6.98160156 13.12296875 7.90070313 14.0234375 8.84765625 C14.67570313 9.55792969 15.32796875 10.26820313 16 11 C14.140625 11.61328125 14.140625 11.61328125 12 12 C9.75 10.1875 9.75 10.1875 8 8 C8 7.34 8 6.68 8 6 C5.525 5.01 5.525 5.01 3 4 C3 3.01 3 2.02 3 1 C2.01 0.67 1.02 0.34 0 0 Z " fill="#AEAFAF" transform="translate(180,213)"/>
<path d="M0 0 C1.32 0 2.64 0 4 0 C3.72014305 4.61763975 1.61399479 7.29036089 -1.3671875 10.6171875 C-3 12 -3 12 -5.875 12.4375 C-6.57625 12.293125 -7.2775 12.14875 -8 12 C-7.59007812 11.55269531 -7.18015625 11.10539063 -6.7578125 10.64453125 C-3.74359926 7.26255515 -1.33949455 4.420332 0 0 Z " fill="#9C9D9D" transform="translate(159,149)"/>
<path d="M0 0 C5.21525413 0.61355931 9.13543825 2.72542991 12.4921875 6.8203125 C13.70680185 8.5152828 14.85885551 10.25472019 16 12 C13.21788056 11.62403791 11.4120716 11.32681541 9.1875 9.5625 C8 8 8 8 8 6 C7.34 6 6.68 6 6 6 C4.375 4.625 4.375 4.625 3 3 C3 2.34 3 1.68 3 1 C2.01 0.67 1.02 0.34 0 0 Z " fill="#ABACAB" transform="translate(148,181)"/>
<path d="M0 0 C1.65 0.33 3.3 0.66 5 1 C2.37631768 5.17845703 -0.24345739 8.72506542 -4 12 C-4.99 12 -5.98 12 -7 12 C-5.82633684 9.11919043 -4.64907259 7.65742801 -2.375 5.4375 C0.34893236 3.2090916 0.34893236 3.2090916 0 0 Z " fill="#C4C4C4" transform="translate(155,149)"/>
<path d="M0 0 C0.77403168 0.00141495 1.54806335 0.0028299 2.34555054 0.00428772 C4.82155192 0.00989222 7.29746338 0.02244542 9.7734375 0.03515625 C11.45051953 0.04017067 13.12760297 0.04473368 14.8046875 0.04882812 C18.91930556 0.0598631 23.03385628 0.07713071 27.1484375 0.09765625 C27.1484375 0.42765625 27.1484375 0.75765625 27.1484375 1.09765625 C16.2584375 1.09765625 5.3684375 1.09765625 -5.8515625 1.09765625 C-6.1815625 2.41765625 -6.5115625 3.73765625 -6.8515625 5.09765625 C-7.8415625 3.77765625 -8.8315625 2.45765625 -9.8515625 1.09765625 C-6.73202122 -0.46211439 -3.42196866 -0.02338501 0 0 Z " fill="#E8E8E8" transform="translate(252.8515625,84.90234375)"/>
<path d="M0 0 C0.99 0.33 1.98 0.66 3 1 C3 1.66 3 2.32 3 3 C3.5887793 3.26280762 4.17755859 3.52561523 4.78417969 3.79638672 C7.10339241 5.05616181 8.60949403 6.38004021 10.453125 8.2578125 C11.071875 8.88300781 11.690625 9.50820312 12.328125 10.15234375 C12.96234375 10.80332031 13.5965625 11.45429688 14.25 12.125 C14.8996875 12.78371094 15.549375 13.44242188 16.21875 14.12109375 C17.81711727 15.74296643 19.41061897 17.3693281 21 19 C18 19 18 19 15.51171875 16.76953125 C14.56327591 15.79062307 13.62220441 14.80453463 12.6875 13.8125 C8.23189251 9.190545 8.23189251 9.190545 3.375 5 C1 3 1 3 0 0 Z " fill="#454544" transform="translate(168,193)"/>
<path d="M0 0 C0.66 0.33 1.32 0.66 2 1 C0.9375 2.0625 -0.125 3.125 -1.1875 4.1875 C-1.82816406 4.82945313 -2.46882813 5.47140625 -3.12890625 6.1328125 C-4.61813133 7.61892855 -6.11951413 9.09285903 -7.625 10.5625 C-9.4324733 12.41753838 -10.97730044 14.22152275 -12.5625 16.25 C-15.03294703 19.03717101 -15.57652882 19.39202626 -19 20 C-13.17371096 12.84198775 -6.5617015 6.47408234 0 0 Z " fill="#505050" transform="translate(217,97)"/>
<path d="M0 0 C0.66 0.33 1.32 0.66 2 1 C1.505 1.680625 1.01 2.36125 0.5 3.0625 C-1.35871077 6.70247525 -1.43343264 8.95462873 -1 13 C0.40759341 15.76441969 0.40759341 15.76441969 2 18 C2 18.66 2 19.32 2 20 C-1 19 -1 19 -2.6875 16.375 C-4.17126457 12.55960539 -4.44300127 10.06084497 -4 6 C-2.84360194 3.68720389 -1.82590172 1.82590172 0 0 Z " fill="#666665" transform="translate(150,161)"/>
<path d="M0 0 C0.66 0.33 1.32 0.66 2 1 C1.67257813 1.84820312 1.34515625 2.69640625 1.0078125 3.5703125 C-0.05932828 7.20190011 -0.20197218 10.10336301 -0.125 13.875 C-0.10695312 15.02742187 -0.08890625 16.17984375 -0.0703125 17.3671875 C-0.04710937 18.23601562 -0.02390625 19.10484375 0 20 C-0.66 20 -1.32 20 -2 20 C-2.06058594 19.16855469 -2.12117187 18.33710938 -2.18359375 17.48046875 C-2.26738281 16.39378906 -2.35117188 15.30710938 -2.4375 14.1875 C-2.51871094 13.10855469 -2.59992188 12.02960938 -2.68359375 10.91796875 C-2.90212461 7.94010095 -2.90212461 7.94010095 -4 5 C-2.0625 2.3125 -2.0625 2.3125 0 0 Z " fill="#8F908F" transform="translate(144,161)"/>
<path d="M0 0 C1.65 0 3.3 0 5 0 C3.59844241 3.33772993 2.0490314 5.01749057 -0.875 7.125 C-1.55304688 7.62257813 -2.23109375 8.12015625 -2.9296875 8.6328125 C-4.8975595 9.93235061 -6.86853684 10.99639627 -9 12 C-8.57847656 11.51789063 -8.15695313 11.03578125 -7.72265625 10.5390625 C-7.17480469 9.90742187 -6.62695312 9.27578125 -6.0625 8.625 C-5.51722656 7.99851562 -4.97195312 7.37203125 -4.41015625 6.7265625 C-2.93041376 5.04367666 -2.93041376 5.04367666 -2 3 C-1.34 3 -0.68 3 0 3 C0 2.01 0 1.02 0 0 Z " fill="#727373" transform="translate(196,117)"/>
<path d="M0 0 C0.33 0 0.66 0 1 0 C1.04898438 0.66386719 1.09796875 1.32773438 1.1484375 2.01171875 C1.71125812 8.7112236 1.71125812 8.7112236 4 15 C2.68 15 1.36 15 0 15 C-0.98783094 12.03650719 -1.13410525 10.0287337 -1.125 6.9375 C-1.12757813 6.05964844 -1.13015625 5.18179688 -1.1328125 4.27734375 C-1 2 -1 2 0 0 Z " fill="#838381" transform="translate(144,166)"/>
<path d="M0 0 C3.21912302 0.5795818 4.89792533 1.48761055 7.1875 3.8125 C7.69667969 4.31394531 8.20585937 4.81539062 8.73046875 5.33203125 C10.15664221 7.20580377 10.58610657 8.70114612 11 11 C7.584241 9.55661511 5.63973737 7.75105832 3.25 4.9375 C2.63640625 4.22464844 2.0228125 3.51179687 1.390625 2.77734375 C0 1 0 1 0 0 Z " fill="#666665" transform="translate(204,234)"/>
<path d="M0 0 C3.21912302 0.5795818 4.89792533 1.48761055 7.1875 3.8125 C7.69667969 4.31394531 8.20585937 4.81539062 8.73046875 5.33203125 C10.15664221 7.20580377 10.58610657 8.70114612 11 11 C7.584241 9.55661511 5.63973737 7.75105832 3.25 4.9375 C2.63640625 4.22464844 2.0228125 3.51179687 1.390625 2.77734375 C0 1 0 1 0 0 Z " fill="#666665" transform="translate(172,202)"/>
<path d="M0 0 C3.81970556 0.2572008 5.55376437 0.56346514 8.3359375 3.28515625 C9.00882813 4.20167969 9.68171875 5.11820313 10.375 6.0625 C11.06335938 6.98160156 11.75171875 7.90070313 12.4609375 8.84765625 C12.96882812 9.55792969 13.47671875 10.26820313 14 11 C11 11 11 11 9.5703125 9.57421875 C9.09335938 8.95160156 8.61640625 8.32898438 8.125 7.6875 C5.69386027 4.67896458 3.45184689 2.82744835 0 1 C0 0.67 0 0.34 0 0 Z " fill="#878888" transform="translate(152,181)"/>
<path d="M0 0 C1.32 0.33 2.64 0.66 4 1 C0.37 4.63 -3.26 8.26 -7 12 C-7.99 11.67 -8.98 11.34 -10 11 C-9.52949219 10.62488281 -9.05898437 10.24976563 -8.57421875 9.86328125 C-4.93360516 6.87089285 -2.14546696 4.29093391 0 0 Z " fill="#474C4E" transform="translate(169,149)"/>
<path d="M0 0 C1.32 0 2.64 0 4 0 C2.62968895 5.65253308 -1.67689413 8.5113541 -6 12 C-6 7.72159739 -3.71595568 6.17965543 -1 3 C-0.67 2.01 -0.34 1.02 0 0 Z " fill="#787979" transform="translate(163,149)"/>
<path d="M0 0 C0.78375 0.04125 1.5675 0.0825 2.375 0.125 C1.44538578 1.27724028 0.5059875 2.42159176 -0.4375 3.5625 C-1.22060547 4.51962891 -1.22060547 4.51962891 -2.01953125 5.49609375 C-3.625 7.125 -3.625 7.125 -6.625 8.125 C-4.21323529 0.20063025 -4.21323529 0.20063025 0 0 Z " fill="#37393B" transform="translate(158.625,160.875)"/>
<path d="M0 0 C0.66 0.33 1.32 0.66 2 1 C0.8758824 2.29243468 -0.24932592 3.58392075 -1.375 4.875 C-2.00148437 5.59429687 -2.62796875 6.31359375 -3.2734375 7.0546875 C-4.47426834 8.4076598 -5.7208345 9.7208345 -7 11 C-7.99 10.67 -8.98 10.34 -10 10 C-6.7 6.7 -3.4 3.4 0 0 Z " fill="#E9E9E9" transform="translate(184,118)"/>
<path d="M0 0 C4.74726951 1.05494878 8.74580276 2.23198214 12 6 C4.61538462 5.63076923 4.61538462 5.63076923 1.5 2.4375 C1.005 1.633125 0.51 0.82875 0 0 Z " fill="#6F7374" transform="translate(220,246)"/>
<path d="M0 0 C1.81325551 0.11351517 3.62563357 0.24112961 5.4375 0.375 C6.95150391 0.47941406 6.95150391 0.47941406 8.49609375 0.5859375 C9.73552734 0.79089844 9.73552734 0.79089844 11 1 C11.33 1.66 11.66 2.32 12 3 C10.56260487 3.02712066 9.12506137 3.04645067 7.6875 3.0625 C6.48673828 3.07990234 6.48673828 3.07990234 5.26171875 3.09765625 C3 3 3 3 0 2 C0 1.34 0 0.68 0 0 Z " fill="#A0A3A4" transform="translate(224,253)"/>
<path d="M0 0 C4.43458973 1.3937282 6.87378374 3.60582235 10 7 C9.67 7.99 9.34 8.98 9 10 C7.49702124 8.52386015 5.99768715 7.04400843 4.5 5.5625 C3.6646875 4.73878906 2.829375 3.91507813 1.96875 3.06640625 C0 1 0 1 0 0 Z " fill="#797977" transform="translate(192,225)"/>
<path d="M0 0 C4.43458973 1.3937282 6.87378374 3.60582235 10 7 C9.67 7.99 9.34 8.98 9 10 C7.49702124 8.52386015 5.99768715 7.04400843 4.5 5.5625 C3.6646875 4.73878906 2.829375 3.91507813 1.96875 3.06640625 C0 1 0 1 0 0 Z " fill="#797977" transform="translate(160,193)"/>
<path d="M0 0 C4.18423892 3.50897269 8.19588166 7.08060535 12 11 C7.68819268 10.51594564 5.9410446 9.37995134 3.1875 6.0625 C2.58292969 5.35222656 1.97835937 4.64195312 1.35546875 3.91015625 C0 2 0 2 0 0 Z " fill="#6B6D6D" transform="translate(158,182)"/>
<path d="M0 0 C1.32 0.33 2.64 0.66 4 1 C2.63629701 3.99220268 1.05091917 6.29026529 -1.125 8.75 C-1.93324219 9.67039063 -1.93324219 9.67039063 -2.7578125 10.609375 C-3.16773438 11.06828125 -3.57765625 11.5271875 -4 12 C-4.66 11.67 -5.32 11.34 -6 11 C-3.69 8.03 -1.38 5.06 1 2 C0.67 1.34 0.34 0.68 0 0 Z " fill="#DBDBDB" transform="translate(152,149)"/>
<path d="M0 0 C0.33 0.99 0.66 1.98 1 3 C-0.9375 5.6875 -0.9375 5.6875 -3 8 C-4.32 7.67 -5.64 7.34 -7 7 C-4.69 4.69 -2.38 2.38 0 0 Z " fill="#B7C1C7" transform="translate(299,194)"/>
<path d="M0 0 C0.33 0.99 0.66 1.98 1 3 C-0.9375 5.6875 -0.9375 5.6875 -3 8 C-4.32 7.67 -5.64 7.34 -7 7 C-4.69 4.69 -2.38 2.38 0 0 Z " fill="#B7C1C7" transform="translate(307,186)"/>
<path d="M0 0 C2.71675995 0.36712972 4.61063713 0.72744599 6.875 2.3125 C7.431875 3.1478125 7.431875 3.1478125 8 4 C7.5703125 6.10546875 7.5703125 6.10546875 7 8 C5.83035398 6.8572081 4.66435444 5.71068285 3.5 4.5625 C2.8503125 3.92441406 2.200625 3.28632813 1.53125 2.62890625 C0 1 0 1 0 0 Z " fill="#B7C0C7" transform="translate(298,146)"/>
<path d="M0 0 C1.32 0 2.64 0 4 0 C3.67 0.99 3.34 1.98 3 3 C2.34 3 1.68 3 1 3 C0.67 3.99 0.34 4.98 0 6 C-0.66 6 -1.32 6 -2 6 C-1.34 4.02 -0.68 2.04 0 0 Z " fill="#848787" transform="translate(268,225)"/>
<path d="M0 0 C0.33 0.99 0.66 1.98 1 3 C-0.4375 5.1875 -0.4375 5.1875 -2 7 C-3.32 6.67 -4.64 6.34 -6 6 C-4.02 4.02 -2.04 2.04 0 0 Z " fill="#B6C0C6" transform="translate(275,218)"/>
<path d="M0 0 C5.66153846 2.33846154 5.66153846 2.33846154 7.375 5.6875 C7.684375 6.8321875 7.684375 6.8321875 8 8 C7.01 7.67 6.02 7.34 5 7 C5 6.34 5 5.68 5 5 C3.35 4.67 1.7 4.34 0 4 C0 2.68 0 1.36 0 0 Z " fill="#DADADB" transform="translate(298,142)"/>
<path d="M0 0 C0.66 0 1.32 0 2 0 C0.44499019 3.81684226 -2.03595495 6.19195732 -5 9 C-5.66 8.67 -6.32 8.34 -7 8 C-5.88200014 6.66079162 -4.75538103 5.32877444 -3.625 4 C-2.68527344 2.88625 -2.68527344 2.88625 -1.7265625 1.75 C-1.15679687 1.1725 -0.58703125 0.595 0 0 Z " fill="#8F9190" transform="translate(192,120)"/>
<path d="M0 0 C5.5 -0.36666667 5.5 -0.36666667 7.875 1.375 C9 3 9 3 9 5 C5.54074837 3.7508258 2.85306797 2.32472205 0 0 Z " fill="#545A5C" transform="translate(220,245)"/>
<path d="M0 0 C0.66 0.33 1.32 0.66 2 1 C-0.31 3.31 -2.62 5.62 -5 8 C-5 5 -5 5 -4 2 C-2.0625 0.75 -2.0625 0.75 0 0 Z " fill="#D8D9D9" transform="translate(280,216)"/>
<path d="M0 0 C1.2380014 3.57644848 0.74926071 6.33694766 0 10 C-0.66 9.67 -1.32 9.34 -2 9 C-1.125 1.125 -1.125 1.125 0 0 Z " fill="#444749" transform="translate(152,165)"/>
<path d="M0 0 C2.78388975 1.70625501 3.85384206 2.47626739 4.75 5.6875 C4.8325 6.450625 4.915 7.21375 5 8 C2.5 6.25 2.5 6.25 0 4 C0 2.68 0 1.36 0 0 Z " fill="#CBD4DA" transform="translate(317,162)"/>
<path d="M0 0 C2.64 0 5.28 0 8 0 C4 2 4 2 0 4 C0 2.68 0 1.36 0 0 Z " fill="#CBCCCE" transform="translate(248,245)"/>
<path d="M0 0 C2.475 0.495 2.475 0.495 5 1 C5.33 2.65 5.66 4.3 6 6 C3.97945196 4.35830472 1.97956942 2.69088222 0 1 C0 0.67 0 0.34 0 0 Z " fill="#BAC3CA" transform="translate(311,159)"/>
</svg>
