<?xml version="1.0" encoding="UTF-8"?>
<svg version="1.1" xmlns="http://www.w3.org/2000/svg" width="1024" height="1024">
<path d="M0 0 C337.92 0 675.84 0 1024 0 C1024 337.92 1024 675.84 1024 1024 C686.08 1024 348.16 1024 0 1024 C0 686.08 0 348.16 0 0 Z " fill="#FBFBF9" transform="translate(0,0)"/>
<path d="M0 0 C3.46450478 2.87263062 6.74644332 5.89229242 10 9 C10.60328125 9.52851563 11.2065625 10.05703125 11.828125 10.6015625 C16.06481707 14.46209967 19.1905206 18.95708007 22.375 23.6875 C23.03725586 24.66904053 23.03725586 24.66904053 23.71289062 25.67041016 C25.73480157 28.7546945 27.24778335 31.39419085 28 35 C29.29292969 34.95359375 30.58585938 34.9071875 31.91796875 34.859375 C42.4401516 34.59581358 51.16730081 34.90902297 61 39 C62.06154297 39.38091797 62.06154297 39.38091797 63.14453125 39.76953125 C77.97007132 45.89903152 87.95356003 62.00231672 94 76 C97.47235528 84.94629116 98.71309488 93.4317142 99 103 C99.53367187 103.13535156 100.06734375 103.27070313 100.6171875 103.41015625 C113.01346601 106.99177997 122.98333062 115.80694895 129.75 126.625 C137.10890443 140.06299939 139.13105648 154.31503433 135.875 169.25 C131.61989292 183.78828254 122.93645546 195.92501507 110 204 C100.40407094 208.77257848 91.33557669 211.30899722 80.66622925 211.26069641 C79.75863959 211.26452196 78.85104994 211.26834751 77.91595757 211.27228898 C74.89166575 211.28256165 71.86756582 211.27863769 68.84326172 211.2746582 C66.66777878 211.27900797 64.49229738 211.284192 62.31681824 211.29014587 C56.41776246 211.3035218 50.5187708 211.30411586 44.61970282 211.30158257 C39.68723923 211.30051144 34.75478855 211.30540013 29.82232773 211.310188 C18.17809146 211.32127934 6.53388744 211.32172334 -5.11035156 211.31567383 C-17.10042345 211.30964007 -29.09034919 211.32193074 -41.08040631 211.3432439 C-51.3915367 211.36089497 -61.70262982 211.36685554 -72.01377475 211.36360615 C-78.16441917 211.361798 -84.31497984 211.3643823 -90.4656105 211.37832069 C-96.25557446 211.39095068 -102.04535627 211.38890612 -107.83531761 211.37590981 C-109.95156988 211.37355533 -112.06783517 211.37623786 -114.18407249 211.38453293 C-128.75356542 211.43748931 -142.4259238 210.94500924 -155.75 204.3125 C-156.46752441 203.96292236 -157.18504883 203.61334473 -157.92431641 203.25317383 C-163.95258097 200.21589257 -169.06831312 196.62603794 -174 192 C-174.92425781 191.154375 -175.84851563 190.30875 -176.80078125 189.4375 C-191.01136782 175.89994527 -198.76894463 158.93626476 -200.28515625 139.30859375 C-200.790673 118.23074306 -194.17694144 98.84540361 -179.8671875 83.29711914 C-168.53212767 71.54478371 -153.45260761 63.71377907 -137 63 C-136.92523438 62.175 -136.85046875 61.35 -136.7734375 60.5 C-134.16194804 37.55985727 -122.62934382 16.75226628 -104.6484375 2.21484375 C-74.2498398 -21.12315571 -31.23238329 -23.41236671 0 0 Z " fill="#0E8BF6" transform="translate(274,389)"/>
<path d="M0 0 C9.96316205 6.83248692 18.18931059 18.09406561 25.66015625 27.42578125 C28.14140925 30.4257631 30.75098682 33.28825526 33.40234375 36.13671875 C36.85398429 39.8453141 40.16756669 43.62177952 43.33984375 47.57421875 C47.68994988 52.9786594 52.35538502 58.03344147 57.0859375 63.1015625 C60.0268914 66.25547183 62.87707941 69.48215469 65.6953125 72.74609375 C66.40622486 73.56513841 67.13545701 74.36983201 67.90234375 75.13671875 C67.90376877 74.25610779 67.90519379 73.37549683 67.90666199 72.46820068 C67.92449137 64.16927596 67.96610264 55.87088472 68.03443432 47.57221603 C68.06872583 43.30572225 68.09381758 39.03958734 68.09790039 34.77294922 C68.10217884 30.65532872 68.13060253 26.53851806 68.17577553 22.42115021 C68.18876529 20.85033129 68.19305294 19.27941552 68.18849754 17.7085495 C68.18360145 15.50760972 68.20963273 13.30904606 68.24291992 11.10839844 C68.24958176 9.85597351 68.25624359 8.60354858 68.2631073 7.31317139 C68.90234375 4.13671875 68.90234375 4.13671875 71.31451416 1.7333374 C73.84632403 0.17128136 75.05507834 -0.37463058 77.96875 -0.39453125 C78.70158203 -0.3996875 79.43441406 -0.40484375 80.18945312 -0.41015625 C80.94033203 -0.3946875 81.69121094 -0.37921875 82.46484375 -0.36328125 C83.59696289 -0.38648438 83.59696289 -0.38648438 84.75195312 -0.41015625 C87.98562095 -0.38736388 90.36564002 -0.20787161 93.11683655 1.55853271 C95.85467064 5.51183272 95.45261356 9.21666422 95.40405273 13.91894531 C95.41215721 15.40747261 95.41215721 15.40747261 95.42042542 16.92607117 C95.43294276 20.21013119 95.41639638 23.4933194 95.3984375 26.77734375 C95.39859247 29.0617477 95.40008106 31.34615192 95.40284729 33.6305542 C95.4042328 38.42227784 95.39165128 43.21370274 95.36889648 48.00537109 C95.34057597 54.13650794 95.34322988 60.26714587 95.3559866 66.39831924 C95.36295668 71.11849191 95.35513816 75.83855014 95.34272957 80.55870819 C95.33822348 82.81845409 95.33787088 85.07821231 95.34179497 87.33795929 C95.34471849 90.50453148 95.32814278 93.67042749 95.30639648 96.83691406 C95.31089813 97.76499374 95.31539978 98.69307343 95.32003784 99.64927673 C95.24216311 106.50435147 94.45057486 112.52314838 89.46484375 117.63671875 C84.3488732 119.79081161 79.37013351 120.10497319 73.90234375 119.13671875 C64.31665549 113.7347712 56.98415369 104.45102659 50.21484375 95.953125 C47.71365626 92.90691524 45.08834155 90.01891359 42.40234375 87.13671875 C38.11240644 82.5270576 34.09820763 77.75885267 30.1484375 72.8515625 C27.81403785 70.0299838 25.38243777 67.33081163 22.90234375 64.63671875 C18.76256959 60.13640438 14.8456268 55.50165326 11.0078125 50.7421875 C9.44304059 48.80581855 7.8659987 46.88485133 6.27075195 44.97387695 C5.48917725 44.03761475 4.70760254 43.10135254 3.90234375 42.13671875 C3.89869812 43.04238586 3.89505249 43.94805298 3.89129639 44.88116455 C3.8534326 53.4155021 3.79659836 61.94945687 3.71844101 70.48352432 C3.67892853 74.87103015 3.64675872 79.25833416 3.63134766 83.64599609 C3.61620565 87.88023899 3.58180456 92.11392716 3.53403473 96.34792328 C3.51919542 97.96339853 3.51130127 99.57895297 3.5104599 101.19449615 C3.50809601 103.4574144 3.4810667 105.71879236 3.44824219 107.98144531 C3.43935974 109.26940002 3.43047729 110.55735474 3.42132568 111.88433838 C2.90234375 115.13671875 2.90234375 115.13671875 1.11407471 117.55072021 C-2.23037893 119.9489769 -5.57864472 119.71780865 -9.53515625 119.63671875 C-10.28603516 119.6521875 -11.03691406 119.66765625 -11.81054688 119.68359375 C-12.90979492 119.67585937 -12.90979492 119.67585937 -14.03125 119.66796875 C-14.69181396 119.66345703 -15.35237793 119.65894531 -16.03295898 119.65429688 C-19.31305098 118.83204371 -20.7735033 117.6180103 -23.09765625 115.13671875 C-23.85113223 111.92051315 -23.76005762 108.75256632 -23.71289062 105.4621582 C-23.71843964 104.48116653 -23.72398865 103.50017487 -23.72970581 102.48945618 C-23.74152719 99.24247559 -23.71719212 95.99688334 -23.69140625 92.75 C-23.68969508 90.49041304 -23.68976089 88.2308241 -23.69152832 85.97123718 C-23.6898734 81.23071343 -23.67114993 76.49066158 -23.63964844 71.75024414 C-23.60008414 65.68868981 -23.59558917 59.62775706 -23.60311127 53.56609821 C-23.60618983 48.89648294 -23.59402699 44.22700603 -23.57698059 39.55742455 C-23.56997126 37.32362932 -23.56682354 35.0898184 -23.56767273 32.85601234 C-23.56586393 29.723141 -23.54438573 26.59099669 -23.51757812 23.45825195 C-23.52050873 22.54311829 -23.52343933 21.62798462 -23.52645874 20.68511963 C-23.43009936 13.34269697 -22.30968221 6.91593086 -17.66015625 1.07421875 C-12.67523136 -2.48111421 -5.49894049 -2.26306489 0 0 Z " fill="#F8FAF9" transform="translate(213.09765625,450.86328125)"/>
<path d="M0 0 C25 0 25 0 32.3125 7.21484375 C34.05171204 9.68644714 34.05171204 9.68644714 35.22387695 11.88745117 C35.67783844 12.71167572 36.13179993 13.53590027 36.59951782 14.38510132 C37.06167694 15.22739288 37.52383606 16.06968445 38 16.9375 C39.02753882 18.64657488 40.06436292 20.35009942 41.11010742 22.0480957 C43.18085815 25.4304407 45.20626444 28.83352878 47.19677734 32.26367188 C50.92007485 38.63136856 55.08524393 44.645705 59.3125 50.6875 C65.96612052 60.39826017 72.46973641 70.20460462 79 80 C79.33 53.6 79.66 27.2 80 0 C88.25 0 96.5 0 105 0 C105 40.59 105 81.18 105 123 C97.08 123 89.16 123 81 123 C72.62295476 113.5060154 72.62295476 113.5060154 70.28125 108.96875 C66.89674896 102.70452681 62.9998767 96.88412792 59 91 C57.65086543 88.96842887 56.30319919 86.93588185 54.95703125 84.90234375 C51.28540292 79.39445252 47.50720103 73.96837492 43.6875 68.5625 C39.22418215 62.23576913 34.85228608 55.8622822 30.625 49.375 C30.15408936 48.65771729 29.68317871 47.94043457 29.19799805 47.20141602 C26 42.24357649 26 42.24357649 26 40 C25.34 40 24.68 40 24 40 C24 67.39 24 94.78 24 123 C16.08 123 8.16 123 0 123 C0 82.41 0 41.82 0 0 Z " fill="#263640" transform="translate(446,392)"/>
<path d="M0 0 C9.89523225 7.609205 16.05965398 16.44955449 18 29 C19.42260568 44.51987927 18.51213805 59.09066979 9 72 C8.4225 72.86625 7.845 73.7325 7.25 74.625 C0.84783849 81.38283714 -9.76098051 87.41372999 -19.18554688 88.17700195 C-41.51202237 88.71708921 -41.51202237 88.71708921 -50 84 C-50.95132813 83.49082031 -51.90265625 82.98164063 -52.8828125 82.45703125 C-63.53783538 76.24870459 -69.55324673 67.05033155 -73.1171875 55.32421875 C-76.62555239 40.4066792 -74.4855068 24.37544676 -66.875 11.1875 C-59.64913717 0.67019541 -49.33423116 -5.16126187 -36.88671875 -7.61328125 C-24.40821789 -9.28496134 -10.33231143 -7.58226656 0 0 Z " fill="#26353F" transform="translate(750,429)"/>
<path d="M0 0 C1.55074219 -0.0309375 1.55074219 -0.0309375 3.1328125 -0.0625 C16.43252331 -0.12950106 27.64487647 4.28515493 37.46484375 13.3046875 C43.24800313 19.60668613 47.25 28.68885818 47.25 37.25 C39 37.25 30.75 37.25 22.25 37.25 C21.26 34.94 20.27 32.63 19.25 30.25 C15.70074273 26.02926163 11.80854664 22.77397332 6.19067383 21.94677734 C3.8904097 21.81157195 1.61646793 21.79146793 -0.6875 21.8125 C-1.84668945 21.7825293 -1.84668945 21.7825293 -3.02929688 21.75195312 C-9.88465969 21.75774802 -14.04117222 23.81900071 -19.1875 28.4375 C-21.33347796 32.30026033 -21.75628444 35.92889622 -20.75 40.25 C-14.32041197 49.65477581 -1.29074593 51.36431135 9.125 54.125 C38.21394878 62.17128484 38.21394878 62.17128484 45.515625 74.36328125 C49.87397921 82.757717 50.57838433 91.23009294 48.125 100.4375 C43.89314803 112.75733073 35.69615671 119.30252988 24.41015625 124.953125 C10.36779764 130.71587291 -8.61115802 130.50239756 -22.87890625 125.5078125 C-35.1721082 120.12221927 -43.57127324 112.76340414 -48.75 100.25 C-49.75 97.25 -49.75 97.25 -49.75 89.25 C-41.5 89.25 -33.25 89.25 -24.75 89.25 C-23.76 92.22 -22.77 95.19 -21.75 98.25 C-16.36032418 103.95671557 -11.08827607 106.90409094 -3.22265625 107.53125 C8.62317376 107.95033207 8.62317376 107.95033207 18.8671875 102.78515625 C22.73813187 98.31279397 23.62608424 95.24388073 23.515625 89.5 C23.09622809 85.9474615 21.95665896 84.56056253 19.25 82.25 C10.87480806 77.6119455 1.36035775 75.71675844 -7.82617188 73.33789062 C-22.45282394 69.44921071 -35.34679249 65.44734512 -43.75 52.25 C-47.55398526 44.64202949 -47.77061072 35.53515866 -45.75 27.375 C-42.04818779 16.26956338 -34.52917197 9.24262137 -24.390625 4.0390625 C-16.3555289 0.23722173 -8.77871992 0.04313867 0 0 Z " fill="#26353F" transform="translate(614.75,388.75)"/>
<path d="M0 0 C0 6.27 0 12.54 0 19 C-3.45052083 18.93489583 -6.90104167 18.86979167 -10.3515625 18.8046875 C-14.47489076 18.86378338 -14.47489076 18.86378338 -20 21 C-20.33 25.62 -20.66 30.24 -21 35 C-15.06 35 -9.12 35 -3 35 C-3 41.27 -3 47.54 -3 54 C-8.94 54 -14.88 54 -21 54 C-21 77.76 -21 101.52 -21 126 C-28.92 126 -36.84 126 -45 126 C-45 102.24 -45 78.48 -45 54 C-49.62 54 -54.24 54 -59 54 C-59 47.73 -59 41.46 -59 35 C-54.38 35 -49.76 35 -45 35 C-45.04640625 33.865625 -45.0928125 32.73125 -45.140625 31.5625 C-45.61852273 15.23794813 -45.61852273 15.23794813 -39.33984375 8.1171875 C-28.40441103 -2.61615304 -14.25211805 -2.37535301 0 0 Z " fill="#283741" transform="translate(834,389)"/>
<path d="M0 0 C7.92 0 15.84 0 24 0 C24 7.59 24 15.18 24 23 C30.93 23 37.86 23 45 23 C45 29.27 45 35.54 45 42 C38.07 42 31.14 42 24 42 C24.05100847 48.76372366 24.11388453 55.52512894 24.20751953 62.28808594 C24.23575104 64.58879127 24.25695466 66.88959399 24.27099609 69.19042969 C24.29239486 72.49725279 24.33903108 75.80290226 24.390625 79.109375 C24.39185364 80.13867126 24.39308228 81.16796753 24.39434814 82.22845459 C24.41663786 87.80311312 24.41663786 87.80311312 26.91308594 92.61816406 C29.9934088 94.65777887 31.71084538 95.13717327 35.375 95.125 C36.14585937 95.12757813 36.91671875 95.13015625 37.7109375 95.1328125 C40.3152886 95.05288166 40.3152886 95.05288166 44 94 C44 100.6 44 107.2 44 114 C30.86977656 116.18837057 19.85170862 116.00313965 8.125 109.375 C2.71760768 103.33144387 -0.13344243 95.91074373 -0.11352539 87.86425781 C-0.11344986 86.84350159 -0.11337433 85.82274536 -0.11329651 84.77105713 C-0.10813522 83.67613953 -0.10297394 82.58122192 -0.09765625 81.453125 C-0.0962413 80.3267865 -0.09482635 79.200448 -0.09336853 78.03997803 C-0.08777199 74.44329165 -0.0752201 70.84666756 -0.0625 67.25 C-0.05748455 64.81119882 -0.05292172 62.37239666 -0.04882812 59.93359375 C-0.03780369 53.95570517 -0.0205414 47.97786315 0 42 C-4.62 42 -9.24 42 -14 42 C-14 35.73 -14 29.46 -14 23 C-9.38 23 -4.76 23 0 23 C0 15.41 0 7.82 0 0 Z " fill="#273641" transform="translate(855,401)"/>
<path d="M0 0 C7.36139253 5.09228946 11.24496188 11.22480941 13 20 C13.8934858 30.67788771 12.61236701 39.9262805 5.75 48.4375 C0.35758823 54.08448915 -5.82213397 56.58640701 -13.54296875 57.203125 C-23.92310088 57.38711553 -31.45315582 55.57652189 -39.0859375 48.25390625 C-45.20988006 41.04265144 -46.38624142 32.37755166 -46.2734375 23.1953125 C-45.50391519 14.20289469 -41.72620725 6.96634284 -35 1 C-25.19531003 -6.05609487 -10.14652295 -6.72455835 0 0 Z " fill="#25333D" transform="translate(559,569)"/>
<path d="M0 0 C0.63421875 0.40089844 1.2684375 0.80179688 1.921875 1.21484375 C7.38575304 5.24270256 10.30675019 10.4892297 12 17 C13.49734252 28.6246754 12.24711125 38.37950305 5.875 48.3125 C-1.73239595 55.42376143 -10.28629403 57.37771302 -20.421875 57.2734375 C-28.880649 56.62702464 -35.40956401 52.24813434 -41 46 C-46.45236474 37.71114493 -46.77226502 28.70091813 -46 19 C-45.07336644 15.40389358 -43.73447385 12.27488069 -42 9 C-41.46375 7.9275 -40.9275 6.855 -40.375 5.75 C-30.6866126 -5.46813278 -12.45930731 -8.07829071 0 0 Z " fill="#24323C" transform="translate(789,569)"/>
<path d="M0 0 C1.27037109 -0.0299707 1.27037109 -0.0299707 2.56640625 -0.06054688 C11.7898616 -0.0534845 18.76178512 3.34213874 25.4609375 9.57421875 C29.30796301 13.88180365 30.125 17.61541069 30.125 23.4375 C25.175 23.4375 20.225 23.4375 15.125 23.4375 C14.75375 22.344375 14.3825 21.25125 14 20.125 C12.77194794 17.34216643 12.11999062 16.43361773 9.625 14.5 C3.47614435 12.63338311 -2.38741823 12.52102251 -8.4375 14.75 C-11.09499539 16.36843168 -11.09499539 16.36843168 -12.875 19.4375 C-13.45937438 24.34720257 -13.45937438 24.34720257 -11.22265625 28.53515625 C-8.49478075 30.7455978 -6.3136397 31.50269741 -2.9375 32.4375 C-1.79023438 32.76878906 -0.64296875 33.10007812 0.5390625 33.44140625 C1.72242188 33.77011719 2.90578125 34.09882812 4.125 34.4375 C14.93994119 37.45250053 23.33053199 40.17231634 30.125 49.4375 C32.68159052 54.55068104 31.84693214 62.5037885 30.51171875 67.9296875 C27.8967151 73.8508852 23.08751809 77.75477308 17.19848633 80.25561523 C11.47524476 82.37423965 6.26277018 82.94910289 0.1875 82.875 C-1.13072754 82.86255249 -1.13072754 82.86255249 -2.47558594 82.84985352 C-12.06783207 82.59962875 -19.10002979 80.13929394 -26.1796875 73.50390625 C-30.05680638 68.77810927 -31.875 63.49444063 -31.875 57.4375 C-26.595 57.4375 -21.315 57.4375 -15.875 57.4375 C-15.524375 58.675 -15.17375 59.9125 -14.8125 61.1875 C-13.38880292 64.85400754 -11.85587757 67.04715362 -8.16796875 68.81640625 C-1.886043 70.51798409 4.74637905 70.32444341 10.8125 68.0625 C14.09933204 65.88904274 14.09933204 65.88904274 15.49609375 62.4140625 C15.51800781 61.63804687 15.53992188 60.86203125 15.5625 60.0625 C15.60246094 59.29164063 15.64242187 58.52078125 15.68359375 57.7265625 C14.83755556 54.25958084 13.09647002 53.3106444 10.125 51.4375 C6.81426754 50.27994215 6.81426754 50.27994215 3.1875 49.5 C-21.58118614 43.36300623 -21.58118614 43.36300623 -27.8125 33.3125 C-29.8269848 27.59845822 -30.13305793 20.78672978 -27.99609375 15.09765625 C-21.65605124 4.196131 -12.2162556 -0.10134149 0 0 Z " fill="#24323C" transform="translate(472.875,543.5625)"/>
<path d="M0 0 C5.69943816 3.39364886 9.1973457 8.18753627 11.0546875 14.49609375 C12.83090058 24.56585559 13.02987147 36.40911659 7.5625 45.375 C3.56259778 49.88193208 -0.11688086 53.09790319 -6.29296875 53.61328125 C-14.75354127 53.8017348 -20.37092948 53.10268965 -26.6875 47.3125 C-32.65148709 37.30152167 -33.87865282 27.1891936 -32 15.69921875 C-30.06424282 8.69419744 -25.49168326 3.64788057 -19.75 -0.625 C-13.28098608 -2.57790986 -6.24657387 -2.83288644 0 0 Z " fill="#FAFAF9" transform="translate(732.4375,443.625)"/>
<path d="M0 0 C4.62 0 9.24 0 14 0 C14.01458252 1.04341553 14.02916504 2.08683105 14.04418945 3.16186523 C14.10260393 7.07039949 14.17983007 10.97838335 14.26245117 14.88647461 C14.29549913 16.57095337 14.3235923 18.2555375 14.34643555 19.94018555 C14.35842154 32.80160587 14.35842154 32.80160587 18 45 C20.44971624 46.22485812 22.14234461 46.16722808 24.875 46.1875 C25.73867188 46.20167969 26.60234375 46.21585938 27.4921875 46.23046875 C30.22865636 45.97898641 31.66682351 45.42426896 34 44 C37.84922884 38.92320988 38.5991807 33.53486587 38.609375 27.34375 C38.62591125 26.55601196 38.64244751 25.76827393 38.65948486 24.95666504 C38.70759198 22.47102781 38.72925116 19.98600051 38.75 17.5 C38.7781911 15.80205326 38.80812287 14.10413447 38.83984375 12.40625 C38.91333984 8.27088367 38.96314087 4.13584854 39 0 C43.95 0 48.9 0 54 0 C54 19.47 54 38.94 54 59 C49.38 59 44.76 59 40 59 C39.505 55.04 39.505 55.04 39 51 C38.23816406 51.72316406 38.23816406 51.72316406 37.4609375 52.4609375 C31.6767556 57.76852014 27.29155619 60.5112911 19.1484375 60.24609375 C13.5527561 59.60513388 9.31151983 58.19747463 5.125 54.375 C0.58848474 47.16994635 -0.44201315 40.32966453 -0.29296875 31.93359375 C-0.28872391 31.01409439 -0.28447906 30.09459503 -0.28010559 29.14723206 C-0.26346776 26.24367541 -0.22584467 23.34084274 -0.1875 20.4375 C-0.17243386 18.45508823 -0.15874886 16.47266546 -0.14648438 14.49023438 C-0.11361326 9.65988222 -0.06193611 4.83006336 0 0 Z " fill="#283742" transform="translate(609,566)"/>
<path d="M0 0 C5.74335341 4.37588831 9.76771079 8.94496981 11.625 16 C11.88730647 19.33368641 11.85824134 22.64997203 11.8203125 25.9921875 C11.8174826 26.93812775 11.81465271 27.88406799 11.81173706 28.8586731 C11.80058932 31.86424694 11.77549465 34.86951702 11.75 37.875 C11.73996321 39.91926651 11.73083859 41.96353772 11.72265625 44.0078125 C11.70066767 49.00532444 11.66617509 54.0026108 11.625 59 C7.005 59 2.385 59 -2.375 59 C-2.38958252 57.84999512 -2.40416504 56.69999023 -2.41918945 55.51513672 C-2.47733762 51.23211195 -2.55456924 46.94960384 -2.63745117 42.66699219 C-2.67062296 40.81649181 -2.69867887 38.96589214 -2.72143555 37.11523438 C-2.7551245 34.44878997 -2.8074466 31.7832491 -2.86328125 29.1171875 C-2.86967117 28.29507782 -2.8760611 27.47296814 -2.88264465 26.62594604 C-3.0071748 21.71652496 -3.63051466 18.23592149 -6.375 14 C-10.40660965 11.31226023 -13.63923878 11.32584067 -18.375 12 C-22.49395421 14.36620774 -23.99677857 16.53559791 -25.375 21 C-25.69612087 23.93175967 -25.74678948 26.8533343 -25.7890625 29.80078125 C-25.80842865 30.63715622 -25.8277948 31.47353119 -25.8477478 32.33525085 C-25.90730192 34.9942317 -25.95383174 37.6532564 -26 40.3125 C-26.03820206 42.12046109 -26.07725509 43.92840442 -26.1171875 45.73632812 C-26.21298345 50.15740698 -26.29710331 54.57857101 -26.375 59 C-30.995 59 -35.615 59 -40.375 59 C-40.375 39.53 -40.375 20.06 -40.375 0 C-35.755 0 -31.135 0 -26.375 0 C-26.045 1.65 -25.715 3.3 -25.375 5 C-24.6325 4.38125 -23.89 3.7625 -23.125 3.125 C-16.24301791 -2.19289526 -8.30013468 -2.45929916 0 0 Z " fill="#26353F" transform="translate(852.375,566)"/>
<path d="M0 0 C4.03803642 2.96433887 6.65532263 5.57670103 7.6484375 10.6796875 C7.77347656 11.60652344 7.89851562 12.53335938 8.02734375 13.48828125 C3.32721204 13.77448683 -1.280536 13.94513145 -5.97265625 13.48828125 C-8.72265625 10.98828125 -8.72265625 10.98828125 -10.97265625 8.48828125 C-15.68194913 7.54642267 -19.60074868 7.59494609 -23.66015625 10.23828125 C-25.16713062 12.34498143 -25.16713062 12.34498143 -24.85546875 14.5 C-24.12817808 16.67485736 -24.12817808 16.67485736 -21.890625 17.6484375 C-20.98957031 17.94621094 -20.08851563 18.24398437 -19.16015625 18.55078125 C-18.16886719 18.88207031 -17.17757812 19.21335937 -16.15625 19.5546875 C-13.02866817 20.47185567 -9.8962652 21.2479059 -6.72265625 21.98828125 C-0.80400933 23.41612603 3.75654644 24.99772936 7.96484375 29.61328125 C10.07445361 35.32163733 9.91885904 41.18869203 7.52734375 46.80078125 C3.99471198 53.00167745 -2.35295603 55.62265498 -8.97265625 57.48828125 C-18.40987983 58.46025877 -28.26033404 58.04910768 -35.94921875 51.91015625 C-39.64894282 48.01755557 -40.75560896 44.80593994 -40.97265625 39.48828125 C-36.35265625 39.48828125 -31.73265625 39.48828125 -26.97265625 39.48828125 C-26.31265625 41.13828125 -25.65265625 42.78828125 -24.97265625 44.48828125 C-19.69979516 46.24590161 -14.16328166 46.24829415 -8.91015625 44.42578125 C-6.19486813 41.71049313 -6.39048846 39.21431073 -5.97265625 35.48828125 C-7.08382812 35.2459375 -8.195 35.00359375 -9.33984375 34.75390625 C-32.57869087 29.57606842 -32.57869087 29.57606842 -37.90625 22.47265625 C-40.22282701 18.16195617 -40.61608954 14.08093893 -39.44140625 9.34765625 C-37.01642034 3.46482006 -32.52924299 0.31548824 -26.97265625 -2.51171875 C-18.44018865 -5.47085113 -7.68180741 -4.53750688 0 0 Z " fill="#23313B" transform="translate(913.97265625,568.51171875)"/>
<path d="M0 0 C4.62 0 9.24 0 14 0 C14 4.95 14 9.9 14 15 C18.62 15 23.24 15 28 15 C28 18.63 28 22.26 28 26 C23.38 26 18.76 26 14 26 C14.09343603 30.66344559 14.19950614 35.32636586 14.31738281 39.98925781 C14.35570585 41.57609138 14.39055288 43.16301281 14.421875 44.75 C14.46745431 47.02896566 14.52545838 49.30732468 14.5859375 51.5859375 C14.59748871 52.29744965 14.60903992 53.00896179 14.62094116 53.74203491 C14.63408239 57.82103657 14.63408239 57.82103657 17 61 C19.20250992 61.46006346 19.20250992 61.46006346 21.625 61.625 C23.06875 61.74875 24.5125 61.8725 26 62 C26 65.96 26 69.92 26 74 C11.84991369 74.7154538 11.84991369 74.7154538 5.6484375 71.55859375 C1.8891913 68.00423538 -0.20691977 63.93326425 -0.45410156 58.80883789 C-0.45347756 57.27996438 -0.43143273 55.75098518 -0.390625 54.22265625 C-0.38496521 53.41130722 -0.37930542 52.59995819 -0.37347412 51.76402283 C-0.3512492 49.1962245 -0.30108235 46.62986985 -0.25 44.0625 C-0.2299169 42.31186924 -0.21166931 40.56121641 -0.1953125 38.81054688 C-0.15143044 34.53981622 -0.08250275 30.27015207 0 26 C-2.97 26 -5.94 26 -9 26 C-9 22.37 -9 18.74 -9 15 C-6.03 15 -3.06 15 0 15 C0 10.05 0 5.1 0 0 Z " fill="#24333D" transform="translate(681,551)"/>
<path d="M0 0 C4.62 0 9.24 0 14 0 C14 26.4 14 52.8 14 80 C9.38 80 4.76 80 0 80 C0 53.6 0 27.2 0 0 Z " fill="#22303A" transform="translate(582,545)"/>
<path d="M0 0 C4.72403852 1.9512333 7.72471109 5.44942218 10 10 C10.9978678 25.86993603 10.9978678 25.86993603 7 32 C4.47489647 34.8257111 2.62207657 36.69477054 -1.1796875 37.41015625 C-6.11836067 37.60138434 -9.87250133 36.87965023 -14 34 C-18.11001618 28.66808712 -19.16500618 24.83826665 -19.25 18.1875 C-19.28867187 16.38345703 -19.28867187 16.38345703 -19.328125 14.54296875 C-18.83743713 9.2447081 -16.93868457 6.0531583 -13.4375 2.125 C-9.3794926 -1.01995573 -4.89164734 -0.74562799 0 0 Z " fill="#F9F9F8" transform="translate(547,577)"/>
<path d="M0 0 C4.48035444 2.19944673 6.86312614 4.50131818 9 9 C11.01309997 15.70094814 10.7353557 22.81064826 7.98828125 29.2421875 C5.78312678 33.16439901 3.23805552 35.58731483 -1 37 C-5.50952717 37.25052929 -9.0454117 37.28949849 -13 35 C-18.44290694 29.3096882 -19.15076348 25.81583009 -19.25 18.125 C-19.27578125 16.93132813 -19.3015625 15.73765625 -19.328125 14.5078125 C-18.83455055 9.23126664 -16.92434109 6.03706562 -13.4375 2.125 C-9.36799196 -1.01085532 -4.89704659 -0.85996916 0 0 Z " fill="#F9F9F8" transform="translate(777,577)"/>
<path d="M0 0 C4.95 0 9.9 0 15 0 C15 19.47 15 38.94 15 59 C10.05 59 5.1 59 0 59 C0 39.53 0 20.06 0 0 Z " fill="#293944" transform="translate(718,566)"/>
<path d="M0 0 C8.25 0 16.5 0 25 0 C25 40.59 25 81.18 25 123 C1 123 1 123 -4.265625 118.8359375 C-5.890625 116.18359375 -5.890625 116.18359375 -7.25 113.375 C-7.7759375 112.47136719 -8.301875 111.56773437 -8.84375 110.63671875 C-9.84680059 108.90164387 -10.81613056 107.14645968 -11.74414062 105.37011719 C-13.30584861 102.42278805 -15.0932072 99.73306968 -17 97 C-16.505 96.01 -16.505 96.01 -16 95 C-15.34 95.33 -14.68 95.66 -14 96 C-13.67 96.99 -13.34 97.98 -13 99 C-12.34 99.66 -11.68 100.32 -11 101 C-9.30191608 103.59964394 -7.67838205 106.24096852 -6.046875 108.8828125 C-3.53593553 112.70672414 -0.74476997 116.3403067 2 120 C8.93 120.33 15.86 120.66 23 121 C23 81.4 23 41.8 23 1 C16.07 1 9.14 1 2 1 C2 27.73 2 54.46 2 82 C1.67 82 1.34 82 1 82 C0.67 54.94 0.34 27.88 0 0 Z " fill="#0A161E" transform="translate(526,392)"/>
<path d="M0 0 C4.95 0 9.9 0 15 0 C15 19.47 15 38.94 15 59 C10.05 59 5.1 59 0 59 C0 39.53 0 20.06 0 0 Z M2 2 C2 20.15 2 38.3 2 57 C5.63 57 9.26 57 13 57 C13 38.85 13 20.7 13 2 C9.37 2 5.74 2 2 2 Z " fill="#242E35" transform="translate(718,566)"/>
<path d="M0 0 C4.9637418 1.58417291 4.9637418 1.58417291 6.9375 3.9375 C7.49903595 8.35959561 7.73643062 10.65921101 5.375 14.4375 C1.94613886 16.54756839 -0.10470351 16.56241523 -4.0625 15.9375 C-7.0625 13.875 -7.0625 13.875 -9.0625 10.9375 C-9.2144185 6.60782286 -8.73561337 4.70677242 -5.875 1.4375 C-3.0625 -0.0625 -3.0625 -0.0625 0 0 Z " fill="#23303A" transform="translate(726.0625,543.0625)"/>
<path d="M0 0 C4.62 0 9.24 0 14 0 C14 19.47 14 38.94 14 59 C9.38 59 4.76 59 0 59 C0 56.03 0 53.06 0 50 C0.33 50 0.66 50 1 50 C1 52.31 1 54.62 1 57 C4.63 57 8.26 57 12 57 C12 38.52 12 20.04 12 1 C8.37 1 4.74 1 1 1 C1 11.56 1 22.12 1 33 C0.67 33 0.34 33 0 33 C0 22.11 0 11.22 0 0 Z " fill="#192128" transform="translate(649,566)"/>
<path d="M0 0 C4.29 0 8.58 0 13 0 C13 1.98 13 3.96 13 6 C12.67 6 12.34 6 12 6 C12 4.35 12 2.7 12 1 C8.37 1 4.74 1 1 1 C1 19.48 1 37.96 1 57 C4.63 57 8.26 57 12 57 C12 45.12 12 33.24 12 21 C12.66 20.67 13.32 20.34 14 20 C14 32.87 14 45.74 14 59 C9.38 59 4.76 59 0 59 C0 39.53 0 20.06 0 0 Z " fill="#0F171F" transform="translate(812,566)"/>
<path d="M0 0 C4.62 0 9.24 0 14 0 C14 12.54 14 25.08 14 38 C13.67 38 13.34 38 13 38 C13 26.12 13 14.24 13 2 C9.37 2 5.74 2 2 2 C2 13.22 2 24.44 2 36 C1.34 35.67 0.68 35.34 0 35 C0 23.45 0 11.9 0 0 Z " fill="#0B131A" transform="translate(609,566)"/>
<path d="M0 0 C4.62 0 9.24 0 14 0 C14 4.95 14 9.9 14 15 C18.62 15 23.24 15 28 15 C28 18.63 28 22.26 28 26 C23.38 26 18.76 26 14 26 C14 25.67 14 25.34 14 25 C17.96 25 21.92 25 26 25 C26 22.36 26 19.72 26 17 C24.73542969 17.03480469 24.73542969 17.03480469 23.4453125 17.0703125 C21.80175781 17.09738281 21.80175781 17.09738281 20.125 17.125 C19.03445313 17.14820313 17.94390625 17.17140625 16.8203125 17.1953125 C14 17 14 17 12 15 C11.8046875 11.9609375 11.8046875 11.9609375 11.875 8.375 C11.89304687 7.18648437 11.91109375 5.99796875 11.9296875 4.7734375 C11.95289063 3.85820313 11.97609375 2.94296875 12 2 C8.37 2 4.74 2 1 2 C1 6.29 1 10.58 1 15 C0.67 15 0.34 15 0 15 C0 10.05 0 5.1 0 0 Z " fill="#0B1318" transform="translate(681,551)"/>
<path d="M0 0 C9.19466074 6.27928051 13.65314596 16.78178984 16.34375 27.2890625 C18.97668186 42.17766526 16.37599597 55.82233131 9 69 C8.67 68.34 8.34 67.68 8 67 C8.71529279 64.86866012 9.52221109 62.76764532 10.375 60.6875 C13.34577658 53.40992721 14.18141382 47.52813901 14.1875 39.75 C14.19974609 38.94175781 14.21199219 38.13351562 14.22460938 37.30078125 C14.24444521 29.03584984 12.86712524 21.99187358 9 14.625 C8.2265625 13.12839844 8.2265625 13.12839844 7.4375 11.6015625 C5.1961173 7.21109484 5.1961173 7.21109484 1 5 C0.67 3.35 0.34 1.7 0 0 Z " fill="#1F7FDF" transform="translate(394,505)"/>
<path d="M0 0 C5.40049237 0.33753077 9.11503624 3.51025983 13 7 C15.2728317 10.0541176 16 11.20047777 16 15 C23.26 15 30.52 15 38 15 C37.34 11.37 36.68 7.74 36 4 C39.5718623 7.5718623 40 12.10186234 40 17 C31.75 17 23.5 17 15 17 C14.01 14.69 13.02 12.38 12 10 C8.50563351 5.82617336 4.74157694 3.51024662 0 1 C0 0.67 0 0.34 0 0 Z " fill="#182129" transform="translate(622,409)"/>
<path d="M0 0 C0.99 0.33 1.98 0.66 3 1 C3.33 1.99 3.66 2.98 4 4 C4.66 4.66 5.32 5.32 6 6 C7.69808392 8.59964394 9.32161795 11.24096852 10.953125 13.8828125 C11.62859375 14.91148437 12.3040625 15.94015625 13 17 C13.589021 18.04752441 13.589021 18.04752441 14.18994141 19.11621094 C16.22344597 22.37709376 17.66721828 24.60223799 21.44921875 25.73095703 C24.28664416 26.01053883 27.02486084 26.05792966 29.875 26 C30.84953125 26.01160156 31.8240625 26.02320313 32.828125 26.03515625 C35.22090138 26.05861484 37.60771624 26.04589513 40 26 C40 26.66 40 27.32 40 28 C32.74472672 29.28115394 25.1162734 30.33657584 18 28 C12.22523563 23.41712014 8.72132741 16.77343139 5.28808594 10.36230469 C4.16554256 8.30359928 2.97070218 6.39868348 1.6328125 4.4765625 C0 2 0 2 0 0 Z " fill="#101A22" transform="translate(509,487)"/>
<path d="M0 0 C0 6.6 0 13.2 0 20 C-4.41529789 20.73588298 -7.98267011 21.11130367 -12.375 21.0625 C-13.96441406 21.04896484 -13.96441406 21.04896484 -15.5859375 21.03515625 C-16.38257813 21.02355469 -17.17921875 21.01195312 -18 21 C-18 20.34 -18 19.68 -18 19 C-12.72 18.67 -7.44 18.34 -2 18 C-2 13.05 -2 8.1 -2 3 C-5.63 3 -9.26 3 -13 3 C-13 2.67 -13 2.34 -13 2 C-12.06027344 1.90912109 -12.06027344 1.90912109 -11.1015625 1.81640625 C-9.87566406 1.69072266 -9.87566406 1.69072266 -8.625 1.5625 C-7.81289063 1.48128906 -7.00078125 1.40007812 -6.1640625 1.31640625 C-3.85304959 0.97851447 -2.33455672 0 0 0 Z " fill="#1E282F" transform="translate(899,495)"/>
<path d="M0 0 C6.93 0 13.86 0 21 0 C21 5.94 21 11.88 21 18 C14.07 17.67 7.14 17.34 0 17 C0 16.67 0 16.34 0 16 C6.27 16 12.54 16 19 16 C19 11.05 19 6.1 19 1 C12.73 1 6.46 1 0 1 C0 0.67 0 0.34 0 0 Z " fill="#0C141B" transform="translate(879,425)"/>
<path d="M0 0 C8.43653826 5.76153833 13.90057875 16.0827339 16 26 C16 27.32 16 28.64 16 30 C15.34 30 14.68 30 14 30 C13.79375 28.7625 13.5875 27.525 13.375 26.25 C11.77216412 18.93270576 8.13372223 12.20058335 4 6 C3.01 5.67 2.02 5.34 1 5 C0.67 3.35 0.34 1.7 0 0 Z " fill="#1478DD" transform="translate(394,505)"/>
<path d="M0 0 C5.28 0 10.56 0 16 0 C16 1.65 16 3.3 16 5 C15.34 4.34 14.68 3.68 14 3 C10.64255888 2.75622117 10.64255888 2.75622117 6.875 2.875 C5.59367187 2.89304687 4.31234375 2.91109375 2.9921875 2.9296875 C2.00476563 2.95289063 1.01734375 2.97609375 0 3 C0 2.01 0 1.02 0 0 Z " fill="#242B32" transform="translate(441,601)"/>
<path d="M0 0 C4.98995023 0.51620175 9.26183283 1.28619485 14 3 C16.32631371 3.69364729 18.66225561 4.34543157 21 5 C21 5.33 21 5.66 21 6 C14.12020672 5.57550212 7.40044223 4.70240894 1 2 C0.67 1.34 0.34 0.68 0 0 Z " fill="#162028" transform="translate(595,457)"/>
<path d="M0 0 C0.66 0.33 1.32 0.66 2 1 C1.525625 1.804375 1.05125 2.60875 0.5625 3.4375 C-1.29359618 7.66939929 -1.70559978 11.43172078 -2 16 C-4 14 -4 14 -4.08203125 12.01171875 C-3.53768717 7.31773719 -2.89310547 3.89940303 0 0 Z " fill="#1F282E" transform="translate(878,572)"/>
<path d="M0 0 C0 4.27239124 -1.65864944 7.55134139 -4.5625 10.6875 C-5.2740625 11.3371875 -5.2740625 11.3371875 -6 12 C-6.66 12.99 -7.32 13.98 -8 15 C-7.85562749 8.07011948 -4.77744657 4.80239407 0 0 Z " fill="#11181F" transform="translate(798,394)"/>
<path d="M0 0 C3.23503076 3.23503076 4.40880303 5.75680809 6 10 C6 10.99 6 11.98 6 13 C4.68 12.67 3.36 12.34 2 12 C1.34 8.04 0.68 4.08 0 0 Z " fill="#0B7BE5" transform="translate(362,455)"/>
<path d="M0 0 C0.99 0.33 1.98 0.66 3 1 C-2.75 6 -2.75 6 -5 6 C-5.28875 6.61875 -5.5775 7.2375 -5.875 7.875 C-7 10 -7 10 -9 12 C-8.29302584 7.22792444 -5.41001496 4.28183178 -1.9375 1.125 C-1.298125 0.75375 -0.65875 0.3825 0 0 Z " fill="#161D24" transform="translate(583,397)"/>
<path d="M0 0 C0.66 0 1.32 0 2 0 C1.45773019 3.79588866 -0.20127563 5.47211993 -3 8 C-3.99 7.01 -4.98 6.02 -6 5 C-5.38125 4.731875 -4.7625 4.46375 -4.125 4.1875 C-1.7004767 3.04443152 -1.7004767 3.04443152 0 0 Z " fill="#222D36" transform="translate(645,607)"/>
<path d="M0 0 C0.33 0.66 0.66 1.32 1 2 C-2.16952847 5.26008643 -5.39937989 8.22237877 -9 11 C-7.59928507 5.70841026 -4.14512755 3.22521956 0 0 Z " fill="#0F151D" transform="translate(526,569)"/>
<path d="M0 0 C-1 2 -1 2 -2.5625 2.625 C-6.06398181 3.16368951 -9.45806833 3.05903219 -13 3 C-11.66666667 2.33333333 -10.33333333 1.66666667 -9 1 C-8.0409375 0.4121875 -8.0409375 0.4121875 -7.0625 -0.1875 C-4.38201174 -1.24344992 -2.72832067 -0.75786685 0 0 Z " fill="#111C24" transform="translate(637,513)"/>
<path d="M0 0 C0.66 0 1.32 0 2 0 C0.62513234 2.96125343 -0.76664549 5.60121183 -3 8 C-5.6875 8.75 -5.6875 8.75 -8 9 C-6.8553125 7.88625 -6.8553125 7.88625 -5.6875 6.75 C-3.04428801 4.176446 -3.04428801 4.176446 -1.3125 1.6875 C-0.879375 1.130625 -0.44625 0.57375 0 0 Z " fill="#161E27" transform="translate(637,487)"/>
<path d="M0 0 C-1.28519565 2.86697492 -2.57129254 4.97607712 -5 7 C-5.66 7 -6.32 7 -7 7 C-6.61402985 4.20171644 -6.19863427 3.1794116 -4.0625 1.25 C-2 0 -2 0 0 0 Z " fill="#1F2932" transform="translate(695,430)"/>
<path d="M0 0 C-0.6875 1.9375 -0.6875 1.9375 -2 4 C-4.375 4.6875 -4.375 4.6875 -7 5 C-8.33542939 5.32483418 -9.66961551 5.6550855 -11 6 C-8.24029211 2.78034079 -4.3526723 0 0 0 Z " fill="#0A72DE" transform="translate(118,457)"/>
<path d="M0 0 C4.99275057 1.27721526 7.57611908 3.17330957 11 7 C6.89188572 5.55007731 3.53144334 3.54592427 0 1 C0 0.67 0 0.34 0 0 Z " fill="#141B24" transform="translate(637,393)"/>
<path d="M0 0 C0.99 0.66 1.98 1.32 3 2 C2 3 2 3 -0.94140625 3.09765625 C-2.73384766 3.08025391 -2.73384766 3.08025391 -4.5625 3.0625 C-6.35880859 3.04896484 -6.35880859 3.04896484 -8.19140625 3.03515625 C-9.11824219 3.02355469 -10.04507812 3.01195312 -11 3 C-11 2.67 -11 2.34 -11 2 C-10.06027344 1.90912109 -10.06027344 1.90912109 -9.1015625 1.81640625 C-7.87566406 1.69072266 -7.87566406 1.69072266 -6.625 1.5625 C-5.81289063 1.48128906 -5.00078125 1.40007813 -4.1640625 1.31640625 C-1.95727195 1.10909886 -1.95727195 1.10909886 0 0 Z " fill="#3895EC" transform="translate(301,568)"/>
<path d="M0 0 C1.27351308 2.54702616 0.80191925 3.4282945 0.0625 6.125 C-0.13214844 6.84945312 -0.32679688 7.57390625 -0.52734375 8.3203125 C-0.68332031 8.87460937 -0.83929687 9.42890625 -1 10 C-1.66 9.67 -2.32 9.34 -3 9 C-2.25 2.25 -2.25 2.25 0 0 Z " fill="#22292F" transform="translate(720,545)"/>
<path d="M0 0 C2.64 0.33 5.28 0.66 8 1 C8.33 1.99 8.66 2.98 9 4 C6.03 3.01 3.06 2.02 0 1 C0 0.67 0 0.34 0 0 Z " fill="#1D272F" transform="translate(595,457)"/>
</svg>
